<svg xmlns="http://www.w3.org/2000/svg" viewBox="0 0 151.14 151.14"><defs><style>.a{fill:#231f20;}.b{fill:#fff;}.b,.c{stroke:#231f20;}.b,.c,.d,.e,.h,.i{stroke-linecap:round;stroke-linejoin:round;}.b,.c,.d,.e,.h{stroke-width:2px;}.c,.d,.e,.g,.h,.i,.k{fill:none;}.d{stroke:#939598;}.e,.h,.i{stroke:#00a14b;}.f{fill:#ed1c24;}.g{stroke:#fff;stroke-width:5px;}.g,.k{stroke-miterlimit:10;}.h,.i{opacity:0.5;}.j{fill:#d1d3d4;}.k{stroke:#d1d3d4;stroke-width:4px;}</style></defs><title>11 statements</title><rect class="a" x="28.18" y="16.58" width="94.78" height="131.78" rx="9.14" ry="9.14"/><rect class="b" x="33.14" y="22.3" width="84.86" height="116.54"/><line class="c" x1="75.57" y1="39.84" x2="107.25" y2="39.84"/><line class="d" x1="75.57" y1="45.5" x2="107.25" y2="45.5"/><line class="c" x1="75.57" y1="56.53" x2="107.25" y2="56.53"/><line class="d" x1="75.57" y1="62.18" x2="107.25" y2="62.18"/><line class="c" x1="63.91" y1="94.15" x2="91.59" y2="94.15"/><line class="c" x1="63.91" y1="88.21" x2="106.12" y2="88.21"/><line class="d" x1="63.91" y1="114.79" x2="91.59" y2="114.79"/><line class="d" x1="63.91" y1="108.85" x2="106.12" y2="108.85"/><line class="c" x1="43.89" y1="71.52" x2="107.25" y2="71.52"/><line class="c" x1="43.89" y1="77.17" x2="107.25" y2="77.17"/><rect class="c" x="43.89" y="87.21" width="12.02" height="12.02"/><polyline class="e" points="46.72 93.22 49.9 96.13 53.51 90.47"/><rect class="c" x="43.89" y="108.78" width="12.02" height="12.02"/><polyline class="e" points="46.72 114.79 49.9 117.7 53.51 112.05"/><circle class="f" cx="55.98" cy="51.2" r="13.72"/><line class="g" x1="48.1" y1="51.2" x2="63.87" y2="51.2"/><line class="g" x1="55.98" y1="42.78" x2="55.98" y2="59.62"/><circle class="h" cx="100.77" cy="118.51" r="11.03"/><circle class="i" cx="100.77" cy="118.51" r="12.93"/><polyline class="h" points="95.85 118.51 98.37 122.17 104.68 116.37"/><rect class="j" x="53.3" y="27.48" width="44.55" height="4.72"/><rect class="j" x="53.3" y="13.87" width="44.55" height="12.41"/><circle class="k" cx="75.57" cy="10.01" r="7.23"/></svg>