<svg xmlns="http://www.w3.org/2000/svg" viewBox="0 0 178.41 123.46"><defs><style>.cls-1{opacity:0.2;}.cls-2,.cls-7{fill:#fff;}.cls-2{stroke:#00a14b;}.cls-10,.cls-11,.cls-2,.cls-3,.cls-5,.cls-6,.cls-8{stroke-linecap:round;stroke-linejoin:round;}.cls-2,.cls-3{stroke-width:3.57px;}.cls-3{fill:#00a14b;}.cls-10,.cls-11,.cls-3,.cls-5,.cls-6{stroke:#231f20;}.cls-4{fill:#231f20;}.cls-10,.cls-11,.cls-5,.cls-6,.cls-8{fill:none;}.cls-5{stroke-width:2.8px;}.cls-6,.cls-8{stroke-width:1.13px;}.cls-8{stroke:#939598;}.cls-9{fill:#939598;}.cls-10{stroke-width:1.07px;}.cls-11{stroke-width:2.4px;}</style></defs><title>Financial Calculator</title><g id="icon"><g class="cls-1"><polyline class="cls-2" points="30.09 84.84 159.17 100.52 166.31 41.73"/><polyline class="cls-2" points="24.07 77.16 153.15 92.84 160.29 34.04"/><rect class="cls-3" x="20.07" y="18.13" width="131.09" height="58.75" transform="translate(6.28 -9.87) rotate(6.85)"/><path class="cls-3" d="M48.86,13.5a25,25,0,0,1-27.8,21.84"/><path class="cls-3" d="M129.37,23.17A25,25,0,0,0,151.21,51"/><path class="cls-3" d="M42,71a25,25,0,0,0-21.84-27.8"/><path class="cls-3" d="M122.46,80.71a25,25,0,0,1,27.8-21.83"/><path class="cls-4" d="M81.58,67.23l.59-4.9a14.23,14.23,0,0,1-7.17-3l1.56-3.11a13.07,13.07,0,0,0,6.74,2.93c3.44.41,6-1.3,6.34-4.07s-1.37-4.54-4.79-6.43c-4.71-2.54-7.5-5.14-7-9.36.49-4,3.72-6.74,8.27-6.94l.59-4.9,3,.36-.57,4.71A13,13,0,0,1,95.26,35L93.66,38a11.73,11.73,0,0,0-5.92-2.39c-3.73-.45-5.41,1.62-5.64,3.56-.31,2.52,1.34,4,5.35,6.25,4.76,2.64,7,5.47,6.46,9.79-.46,3.84-3.56,7.11-8.66,7.33l-.61,5Z"/></g><line class="cls-5" x1="172.38" y1="105.14" x2="40.51" y2="105.14"/><line class="cls-5" x1="168.47" y1="97.48" x2="168.47" y2="112.8"/><line class="cls-5" x1="49.47" y1="97.48" x2="49.47" y2="112.8"/><line class="cls-5" x1="79.22" y1="97.48" x2="79.22" y2="112.8"/><line class="cls-5" x1="108.97" y1="97.48" x2="108.97" y2="112.8"/><line class="cls-5" x1="138.72" y1="97.48" x2="138.72" y2="112.8"/><path class="cls-6" d="M35.43,101.09c0,.39,0,.78,0,1.16"/><circle class="cls-7" cx="25.37" cy="101.22" r="19.4"/><path class="cls-8" d="M41.61,100.53a17.6,17.6,0,1,1-4.46-12.92"/><polygon class="cls-9" points="34.54 88.87 40.04 86.17 39.65 91.95 34.54 88.87"/><line class="cls-10" x1="21.71" y1="87.62" x2="21.14" y2="85.01"/><line class="cls-10" x1="35.02" y1="96.39" x2="38.01" y2="95.71"/><line class="cls-10" x1="27.11" y1="109.99" x2="27.88" y2="113.26"/><line class="cls-10" x1="12.94" y1="101.69" x2="9.76" y2="102.56"/><polyline class="cls-10" points="17.18 89.06 24.01 99.38 31.93 93.59"/><circle class="cls-9" cx="24.4" cy="99.1" r="2.12"/><path class="cls-11" d="M150.76,14.29l12.81-5.16c-27.82,103.28-114.37,83-114.37,83"/><line class="cls-11" x1="168.74" y1="21.01" x2="163.57" y2="9.13"/></g></svg>