<svg xmlns="http://www.w3.org/2000/svg" viewBox="0 0 164.87 164.87"><defs><style>.a,.d,.i{fill:#fff;}.a,.b{stroke:#00a14b;stroke-width:0.91px;}.a,.b,.d,.e,.f,.g,.h,.j,.k,.l,.m{stroke-linecap:round;stroke-linejoin:round;}.b,.e,.f,.g,.h,.l,.m{fill:none;}.c,.j{fill:#00a14b;}.d,.e,.j,.k,.l,.m{stroke:#231f20;}.d,.e,.f,.g,.h{stroke-width:1.81px;}.f{stroke:#939598;}.g{stroke:#ffde17;}.h{stroke:#ed1c24;}.j{stroke-width:2px;}.k{fill:#ffde17;}.k,.l{stroke-width:1.91px;}.m{stroke-width:2.47px;}.n{fill:#231f20;}</style></defs><title>11 statements</title><rect class="a" x="18.49" y="7.98" width="33.28" height="14.91" transform="translate(4.63 -7.84) rotate(13.63)"/><path class="b" d="M26.88,5.76a6.34,6.34,0,0,1-7.66,4.67"/><path class="b" d="M46.89,10.61a6.33,6.33,0,0,0,4.67,7.66"/><path class="b" d="M23.41,20.06a6.33,6.33,0,0,0-4.67-7.66"/><path class="b" d="M43.42,24.91a6.34,6.34,0,0,1,7.66-4.67"/><path class="c" d="M27.52,17l.19-.79a2.39,2.39,0,0,1-1.11-.63l.32-.48a2.09,2.09,0,0,0,1,.61.85.85,0,0,0,1.11-.54c.1-.43-.14-.77-.66-1.14-.72-.51-1.12-1-.95-1.66a1.3,1.3,0,0,1,1.48-1l.19-.79.48.12-.18.76a2.09,2.09,0,0,1,.94.51l-.32.47a1.91,1.91,0,0,0-.91-.5c-.6-.15-.92.16-1,.47s.14.68.75,1.12,1,1,.86,1.72a1.39,1.39,0,0,1-1.55,1l-.2.82Z"/><path class="c" d="M32.81,12.67h0L31.7,13v-.6L33.06,12l.64.15-1.34,5.57-.73-.18Z"/><path class="c" d="M38.77,16.25c-.46,1.89-1.41,2.77-2.64,2.47s-1.58-1.46-1.15-3.3,1.5-2.7,2.63-2.43S39.2,14.48,38.77,16.25Zm-3-.64c-.35,1.44-.11,2.37.58,2.54s1.35-.62,1.7-2,.2-2.36-.58-2.55S36.1,14.09,35.73,15.61Z"/><path class="c" d="M43.16,17.32c-.46,1.89-1.41,2.76-2.64,2.46s-1.58-1.46-1.15-3.3,1.51-2.7,2.63-2.42S43.59,15.55,43.16,17.32Zm-3-.65c-.35,1.45-.1,2.38.58,2.54s1.36-.62,1.7-2,.2-2.35-.58-2.54S40.49,15.16,40.12,16.67Z"/><rect class="a" x="14.4" y="11.42" width="33.28" height="14.91" transform="translate(5.32 -6.78) rotate(13.63)"/><path class="b" d="M22.79,9.2a6.35,6.35,0,0,1-7.66,4.68"/><path class="b" d="M42.8,14.06a6.34,6.34,0,0,0,4.67,7.66"/><path class="b" d="M19.32,23.5a6.34,6.34,0,0,0-4.67-7.66"/><path class="b" d="M39.33,28.36A6.35,6.35,0,0,1,47,23.68"/><path class="c" d="M23.43,20.42l.19-.79A2.31,2.31,0,0,1,22.51,19l.32-.48a2,2,0,0,0,1,.61A.83.83,0,0,0,25,18.59c.1-.43-.14-.76-.66-1.14-.71-.5-1.12-1-.95-1.66a1.32,1.32,0,0,1,1.48-1L25,14l.48.11-.18.76a2.09,2.09,0,0,1,.94.52L26,15.9a1.83,1.83,0,0,0-.91-.51c-.6-.14-.92.16-1,.47s.14.68.75,1.12,1,1,.86,1.72a1.4,1.4,0,0,1-1.55,1l-.2.81Z"/><path class="c" d="M28.72,16.11h0l-1.09.29v-.61L29,15.43l.64.16-1.34,5.56L27.54,21Z"/><path class="c" d="M34.68,19.7c-.46,1.89-1.41,2.76-2.64,2.46s-1.58-1.46-1.15-3.3,1.51-2.7,2.63-2.42S35.11,17.93,34.68,19.7Zm-3-.65c-.35,1.45-.1,2.38.58,2.54s1.36-.62,1.7-2,.2-2.35-.58-2.54S32,17.54,31.64,19.05Z"/><path class="c" d="M39.07,20.76c-.46,1.89-1.41,2.77-2.64,2.47s-1.58-1.46-1.15-3.31,1.51-2.69,2.64-2.42S39.5,19,39.07,20.76Zm-3-.64c-.35,1.44-.1,2.37.58,2.54S38,22,38.31,20.61s.2-2.35-.58-2.54S36.4,18.6,36,20.12Z"/><polygon class="d" points="52.64 13.73 17.1 31.08 87.68 31.08 52.64 13.73"/><line class="e" x1="16.63" y1="76.21" x2="88.14" y2="76.21"/><line class="e" x1="23.43" y1="79.96" x2="81.34" y2="79.96"/><line class="f" x1="16.94" y1="34.97" x2="28.61" y2="34.97"/><line class="f" x1="16.94" y1="72.46" x2="28.61" y2="72.46"/><line class="f" x1="18.47" y1="38.58" x2="26.66" y2="38.58"/><line class="f" x1="18.47" y1="68.71" x2="26.66" y2="68.71"/><line class="f" x1="20.69" y1="42.05" x2="20.69" y2="65.8"/><line class="f" x1="24.58" y1="42.05" x2="24.58" y2="65.8"/><line class="f" x1="36.69" y1="34.97" x2="48.35" y2="34.97"/><line class="f" x1="36.69" y1="72.46" x2="48.35" y2="72.46"/><line class="f" x1="38.21" y1="38.58" x2="46.41" y2="38.58"/><line class="f" x1="38.21" y1="68.71" x2="46.41" y2="68.71"/><line class="f" x1="40.43" y1="42.05" x2="40.43" y2="65.8"/><line class="f" x1="44.32" y1="42.05" x2="44.32" y2="65.8"/><line class="f" x1="56.43" y1="34.97" x2="68.09" y2="34.97"/><line class="f" x1="56.43" y1="72.46" x2="68.09" y2="72.46"/><line class="f" x1="57.95" y1="38.58" x2="66.15" y2="38.58"/><line class="f" x1="57.95" y1="68.71" x2="66.15" y2="68.71"/><line class="f" x1="60.18" y1="42.05" x2="60.18" y2="65.8"/><line class="f" x1="64.06" y1="42.05" x2="64.06" y2="65.8"/><line class="f" x1="76.17" y1="34.97" x2="87.83" y2="34.97"/><line class="f" x1="76.17" y1="72.46" x2="87.83" y2="72.46"/><line class="f" x1="77.7" y1="38.58" x2="85.89" y2="38.58"/><line class="f" x1="77.7" y1="68.71" x2="85.89" y2="68.71"/><line class="f" x1="79.92" y1="42.05" x2="79.92" y2="65.8"/><line class="f" x1="83.81" y1="42.05" x2="83.81" y2="65.8"/><circle class="e" cx="123.53" cy="48.6" r="14.63"/><line class="g" x1="103.52" y1="48.6" x2="96.6" y2="48.6"/><line class="g" x1="100.06" y1="35.16" x2="106.68" y2="38.72"/><line class="g" x1="110.84" y1="24.49" x2="113.8" y2="31.21"/><line class="g" x1="124.54" y1="21.72" x2="124.54" y2="27.85"/><line class="g" x1="138.16" y1="24.78" x2="134.17" y2="31.21"/><line class="g" x1="147.42" y1="35.16" x2="142.08" y2="38.72"/><line class="g" x1="144.75" y1="48.6" x2="150.58" y2="48.6"/><polygon class="e" points="115.38 67.4 96.6 74.91 96.6 105.16 151.77 105.16 151.77 75.11 132.59 67.4 123.53 75.31 115.38 67.4"/><line class="e" x1="105.5" y1="82.42" x2="105.5" y2="105.16"/><line class="e" x1="142.08" y1="82.42" x2="142.08" y2="105.16"/><polyline class="h" points="120.82 78.26 120.82 83.48 118.39 105.16"/><polyline class="h" points="126.76 78.26 126.76 83.24 129.07 105.16"/><line class="h" x1="120.82" y1="83.48" x2="126.76" y2="83.24"/><path class="e" d="M129.07,35.06s-.53,12.91-19.49,9.13"/><path class="e" d="M137.69,44.88S129.42,46.5,125.42,42"/><polyline class="e" points="114.79 69.17 114.79 77.08 132.98 77.08 132.98 69.17"/><circle class="i" cx="80.38" cy="124.4" r="53.11"/><circle class="j" cx="72.04" cy="111.98" r="4.25"/><circle class="k" cx="44.04" cy="101" r="16.39"/><path class="l" d="M64,96.42a29.73,29.73,0,1,1,0,49.3"/><path class="m" d="M74.26,83a39.31,39.31,0,0,1,6.47-.74A38.58,38.58,0,1,1,64,155.06"/><circle class="j" cx="90.39" cy="130.16" r="4.25"/><rect class="j" x="59.78" y="118.09" width="42.47" height="4.08" transform="translate(-61.21 92.47) rotate(-45)"/><path class="n" d="M43.26,110.43v-2.32a6.59,6.59,0,0,1-3.51-1l.55-1.54a6.11,6.11,0,0,0,3.3,1c1.64,0,2.74-.94,2.74-2.25s-.9-2-2.6-2.73c-2.34-.92-3.79-2-3.79-4a3.78,3.78,0,0,1,3.47-3.7V91.57h1.42V93.8a6.05,6.05,0,0,1,3,.81l-.57,1.51a5.63,5.63,0,0,0-2.9-.78c-1.77,0-2.43,1.06-2.43,2,0,1.19.85,1.79,2.85,2.61,2.36,1,3.56,2.16,3.56,4.21a4,4,0,0,1-3.63,3.9v2.39Z"/><rect class="k" x="27.27" y="117.87" width="33.59" height="8.05"/><line class="k" x1="31.49" y1="122.89" x2="31.49" y2="125.91"/><line class="k" x1="37.87" y1="122.89" x2="37.87" y2="125.91"/><line class="k" x1="44.25" y1="122.89" x2="44.25" y2="125.91"/><line class="k" x1="50.63" y1="122.89" x2="50.63" y2="125.91"/><line class="k" x1="57" y1="122.89" x2="57" y2="125.91"/><rect class="k" x="22.95" y="125.91" width="33.59" height="8.05"/><line class="k" x1="27.17" y1="130.94" x2="27.17" y2="133.96"/><line class="k" x1="33.55" y1="130.94" x2="33.55" y2="133.96"/><line class="k" x1="39.93" y1="130.94" x2="39.93" y2="133.96"/><line class="k" x1="46.3" y1="130.94" x2="46.3" y2="133.96"/><line class="k" x1="52.68" y1="130.94" x2="52.68" y2="133.96"/><rect class="k" x="27.65" y="133.96" width="33.59" height="8.05"/><line class="k" x1="31.87" y1="138.99" x2="31.87" y2="142.01"/><line class="k" x1="38.25" y1="138.99" x2="38.25" y2="142.01"/><line class="k" x1="44.63" y1="138.99" x2="44.63" y2="142.01"/><line class="k" x1="51" y1="138.99" x2="51" y2="142.01"/><line class="k" x1="57.38" y1="138.99" x2="57.38" y2="142.01"/><rect class="k" x="22.95" y="142.01" width="33.59" height="8.05"/><line class="k" x1="27.17" y1="147.04" x2="27.17" y2="150.05"/><line class="k" x1="33.55" y1="147.04" x2="33.55" y2="150.05"/><line class="k" x1="39.93" y1="147.04" x2="39.93" y2="150.05"/><line class="k" x1="46.3" y1="147.04" x2="46.3" y2="150.05"/><line class="k" x1="52.68" y1="147.04" x2="52.68" y2="150.05"/><polygon class="n" points="73.32 77.34 76.28 88.59 65.13 85.9 73.32 77.34"/></svg>