<svg xmlns="http://www.w3.org/2000/svg" viewBox="0 0 127.35 127.35"><defs><style>.a,.e{fill:#fff;}.a{stroke:#00a14b;}.a,.b,.d,.f,.h{stroke-linecap:round;stroke-linejoin:round;}.a,.b,.h{stroke-width:1.9px;}.b{fill:#00a14b;}.b,.d,.h{stroke:#231f20;}.c{fill:#231f20;}.d,.f,.h{fill:none;}.d,.f{stroke-width:2px;}.f{stroke:#939598;}.g{fill:#939598;}</style></defs><title>11 statements</title><polyline class="a" points="56.2 105.15 125.51 105.15 125.51 73.58"/><polyline class="a" points="52.52 101.47 121.83 101.47 121.83 69.9"/><rect class="b" x="48.25" y="66.16" width="69.87" height="31.31" transform="translate(-0.11 0.11) rotate(-0.08)"/><path class="b" d="M61.55,66.19A13.32,13.32,0,0,1,48.24,79.53"/><path class="b" d="M104.77,66.14a13.32,13.32,0,0,0,13.34,13.3"/><path class="b" d="M61.59,97.08a13.32,13.32,0,0,0-13.34-13.3"/><path class="b" d="M104.81,97a13.33,13.33,0,0,1,13.31-13.34"/><path class="c" d="M82.32,92.52V89.89a7.61,7.61,0,0,1-4-1.14L79,87a6.9,6.9,0,0,0,3.75,1.11c1.85,0,3.1-1.07,3.1-2.55s-1-2.32-3-3.1c-2.66-1-4.3-2.24-4.3-4.5a4.26,4.26,0,0,1,3.93-4.2V71.13h1.62v2.53a7,7,0,0,1,3.39.91l-.65,1.72a6.26,6.26,0,0,0-3.28-.88c-2,0-2.77,1.2-2.76,2.24,0,1.36,1,2,3.23,3,2.69,1.09,4,2.44,4,4.76A4.54,4.54,0,0,1,84,89.81v2.71Z"/><path class="d" d="M54,56.44c0,.69,0,1.37-.06,2.05"/><circle class="e" cx="36.2" cy="56.68" r="34.36"/><path class="f" d="M65,55.45a31.21,31.21,0,1,1-7.91-22.88"/><polygon class="g" points="52.43 34.8 62.18 30.01 61.48 40.26 52.43 34.8"/><line class="h" x1="29.72" y1="32.58" x2="28.69" y2="27.97"/><line class="h" x1="53.28" y1="48.11" x2="58.58" y2="46.92"/><line class="h" x1="39.28" y1="72.19" x2="40.65" y2="78"/><line class="h" x1="14.18" y1="57.51" x2="8.54" y2="59.04"/><polyline class="h" points="21.69 35.14 33.78 53.4 47.82 43.16"/><circle class="g" cx="34.47" cy="52.92" r="3.76"/></svg>