<svg xmlns="http://www.w3.org/2000/svg" viewBox="0 0 105.08 105.08"><defs><style>.a{fill:none;stroke:#ffde17;stroke-width:2.97px;}.a,.b,.c{stroke-linecap:round;stroke-linejoin:round;}.b{fill:#fff;stroke:#00a14b;}.b,.c{stroke-width:1.9px;}.c{fill:#00a14b;stroke:#231f20;}.d{fill:#231f20;}</style></defs><title>11 statements</title><path class="a" d="M6.36,77l3.74-8A46.32,46.32,0,1,0,73.33,8.71"/><line class="a" x1="19.21" y1="70.41" x2="10.1" y2="69"/><polyline class="b" points="17.08 10.18 86.39 10.18 86.39 41.75"/><polyline class="b" points="13.61 13.65 82.92 13.65 82.92 45.22"/><rect class="c" x="9.33" y="17.49" width="69.87" height="31.31" transform="matrix(1, 0, 0, 1, -0.04, 0.06)"/><path class="c" d="M22.64,17.52A13.32,13.32,0,0,1,9.33,30.86"/><path class="c" d="M65.86,17.46A13.32,13.32,0,0,0,79.2,30.77"/><path class="c" d="M22.68,48.41A13.32,13.32,0,0,0,9.34,35.1"/><path class="c" d="M65.9,48.35A13.32,13.32,0,0,1,79.2,35"/><path class="d" d="M43.41,43.84V41.21a7.58,7.58,0,0,1-4-1.14L40,38.32a6.88,6.88,0,0,0,3.75,1.12c1.85,0,3.1-1.07,3.1-2.56s-1-2.32-3-3.1c-2.66-1-4.3-2.23-4.31-4.5a4.29,4.29,0,0,1,3.93-4.2V22.45h1.61V25a7,7,0,0,1,3.39.91l-.65,1.72a6.37,6.37,0,0,0-3.29-.88c-2,0-2.76,1.2-2.76,2.25,0,1.35,1,2,3.24,3,2.68,1.09,4,2.45,4,4.77A4.52,4.52,0,0,1,45,41.13v2.71Z"/></svg>