<svg xmlns="http://www.w3.org/2000/svg" viewBox="0 0 111.56 61.48"><defs><style>.cls-1,.cls-3{fill:none;}.cls-1,.cls-2,.cls-3,.cls-6,.cls-7{stroke:#231f20;}.cls-1,.cls-2,.cls-3,.cls-6{stroke-linecap:round;stroke-linejoin:round;}.cls-1{stroke-width:2px;}.cls-2{fill:#00a14b;}.cls-2,.cls-3{stroke-width:1.08px;}.cls-4{fill:#231f20;}.cls-5,.cls-6{fill:#ffde17;}.cls-6,.cls-7{stroke-width:0.88px;}.cls-7{fill:#fff;stroke-miterlimit:10;}</style></defs><title>11 statements-07</title><g id="icon"><line class="cls-1" x1="38.15" y1="55.52" x2="70.5" y2="55.52"/><line class="cls-1" x1="9.74" y1="35.62" x2="98.84" y2="35.62"/><line class="cls-1" x1="52.53" y1="35.62" x2="47.85" y2="55.52"/><line class="cls-1" x1="56.84" y1="35.62" x2="61.52" y2="55.52"/><rect class="cls-2" x="3.01" y="16.84" width="39.73" height="17.81" transform="translate(-3.66 3.79) rotate(-8.77)"/><path class="cls-3" d="M9.37,18.82A7.58,7.58,0,0,1,3,27.46"/><path class="cls-3" d="M33.66,15.07a7.58,7.58,0,0,0,8.65,6.33"/><path class="cls-3" d="M12.05,36.18A7.58,7.58,0,0,0,3.4,29.85"/><path class="cls-3" d="M36.34,32.43a7.58,7.58,0,0,1,6.33-8.64"/><path class="cls-4" d="M23.31,31.83l-.23-1.48a4.35,4.35,0,0,1-2.34-.29l.2-1a3.93,3.93,0,0,0,2.21.3c1-.16,1.65-.87,1.52-1.7s-.78-1.22-1.93-1.49c-1.58-.35-2.61-.88-2.8-2.16a2.43,2.43,0,0,1,1.84-2.7l-.22-1.48.9-.14.22,1.42a4.1,4.1,0,0,1,2,.22l-.22,1a3.61,3.61,0,0,0-1.92-.22c-1.13.18-1.45.92-1.36,1.5.12.76.72,1.06,2.07,1.39,1.61.38,2.48,1,2.69,2.33A2.59,2.59,0,0,1,24,30.17l.23,1.52Z"/><path class="cls-3" d="M4.49,16.33a19.52,19.52,0,0,1,33.65-4.7l-.84-6.3"/><line class="cls-3" x1="32.43" y1="12.34" x2="38.14" y2="11.63"/><path class="cls-3" d="M41.51,38A19.51,19.51,0,0,1,7.87,42.7L8.7,49"/><line class="cls-3" x1="13.57" y1="41.99" x2="7.87" y2="42.7"/><rect class="cls-5" x="82.88" y="8.55" width="8.87" height="13.87" transform="translate(171.97 41.89) rotate(-172.73)"/><polyline class="cls-6" points="93.49 7.28 96.18 3.63 80.74 1.66 83.72 8.38"/><circle class="cls-6" cx="85.29" cy="27.55" r="9.88"/><path class="cls-4" d="M84,35.07l.22-1.7a4.93,4.93,0,0,1-2.48-1.06l.55-1.08a4.48,4.48,0,0,0,2.32,1,1.77,1.77,0,0,0,2.21-1.39c.12-.92-.46-1.57-1.64-2.24-1.63-.89-2.59-1.79-2.4-3.25A2.77,2.77,0,0,1,85.63,23l.21-1.7,1,.13-.21,1.63a4.49,4.49,0,0,1,2.11.87L88.22,25a4.11,4.11,0,0,0-2-.84c-1.29-.16-1.88.55-2,1.22-.11.87.45,1.39,1.84,2.18,1.64.92,2.4,1.91,2.21,3.4a3,3,0,0,1-3,2.52L85,35.21Z"/><rect class="cls-7" x="79.34" y="14.51" width="6.49" height="2.75" rx="1.37" ry="1.37" transform="translate(162.49 42.08) rotate(-172.73)"/><rect class="cls-7" x="78.92" y="17.76" width="6.49" height="2.75" rx="1.37" ry="1.37" transform="translate(161.25 48.5) rotate(-172.73)"/><path class="cls-7" d="M93.8,22.47l1.93-.67,12.85,1.78L109.94,13,96.32,11.1l-4.5-4.49-5.64.82-2.65,2S81.44,15.25,87.71,12l3,2.69a6.83,6.83,0,0,0,1.06,5.66l2,2.11"/><rect class="cls-7" x="80.17" y="8.01" width="6.49" height="2.75" rx="1.37" ry="1.37" transform="matrix(-0.99, -0.13, 0.13, -0.99, 164.96, 29.24)"/><rect class="cls-7" x="79.75" y="11.26" width="6.49" height="2.75" rx="1.37" ry="1.37" transform="translate(163.72 35.66) rotate(-172.73)"/></g></svg>