<svg xmlns="http://www.w3.org/2000/svg" viewBox="0 0 147.34 147.34"><defs><style>.a{opacity:0.5;}.b{fill:none;stroke:#00a14b;stroke-width:7.68px;}.b,.d{stroke-linecap:round;stroke-linejoin:round;}.c{fill:#00a14b;}.d{fill:#ffde17;stroke:#231f20;stroke-width:3.37px;}.e{fill:#231f20;}</style></defs><title>11 statements</title><g class="a"><polyline class="b" points="12.23 132.28 20.19 109.42 45.3 123.5 60.73 71.72 97.33 83.39 126.8 22.47"/><polygon class="c" points="115.64 20.82 135.11 27.93 129.7 12.39 115.64 20.82"/></g><circle class="d" cx="72.64" cy="48.25" r="28.97"/><path class="e" d="M71.25,64.91v-4.1A11.87,11.87,0,0,1,65,59l1-2.72a10.84,10.84,0,0,0,5.84,1.74c2.89,0,4.84-1.66,4.84-4s-1.59-3.61-4.59-4.83c-4.15-1.62-6.7-3.49-6.7-7,0-3.38,2.39-5.93,6.13-6.54v-4.1h2.52v3.94a10.86,10.86,0,0,1,5.28,1.42l-1,2.68a9.79,9.79,0,0,0-5.12-1.38c-3.12,0-4.3,1.86-4.3,3.49,0,2.11,1.5,3.17,5,4.63,4.19,1.7,6.3,3.81,6.3,7.43,0,3.21-2.24,6.21-6.42,6.9v4.22Z"/><rect class="d" x="42.99" y="78.05" width="59.38" height="14.22"/><line class="d" x1="50.46" y1="86.94" x2="50.46" y2="92.28"/><line class="d" x1="61.73" y1="86.94" x2="61.73" y2="92.28"/><line class="d" x1="73" y1="86.94" x2="73" y2="92.28"/><line class="d" x1="84.27" y1="86.94" x2="84.27" y2="92.28"/><line class="d" x1="95.55" y1="86.94" x2="95.55" y2="92.28"/><rect class="d" x="35.35" y="92.28" width="59.38" height="14.22"/><line class="d" x1="42.82" y1="101.17" x2="42.82" y2="106.5"/><line class="d" x1="54.09" y1="101.17" x2="54.09" y2="106.5"/><line class="d" x1="65.36" y1="101.17" x2="65.36" y2="106.5"/><line class="d" x1="76.63" y1="101.17" x2="76.63" y2="106.5"/><line class="d" x1="87.9" y1="101.17" x2="87.9" y2="106.5"/><rect class="d" x="43.66" y="106.5" width="59.38" height="14.22"/><line class="d" x1="51.13" y1="115.39" x2="51.13" y2="120.73"/><line class="d" x1="62.4" y1="115.39" x2="62.4" y2="120.73"/><line class="d" x1="73.67" y1="115.39" x2="73.67" y2="120.73"/><line class="d" x1="84.94" y1="115.39" x2="84.94" y2="120.73"/><line class="d" x1="96.21" y1="115.39" x2="96.21" y2="120.73"/><rect class="d" x="35.35" y="120.73" width="59.38" height="14.22"/><line class="d" x1="42.82" y1="129.62" x2="42.82" y2="134.95"/><line class="d" x1="54.09" y1="129.62" x2="54.09" y2="134.95"/><line class="d" x1="65.36" y1="129.62" x2="65.36" y2="134.95"/><line class="d" x1="76.63" y1="129.62" x2="76.63" y2="134.95"/><line class="d" x1="87.9" y1="129.62" x2="87.9" y2="134.95"/></svg>