<svg xmlns="http://www.w3.org/2000/svg" viewBox="0 0 95.88 95.88"><defs><style>.a{fill:#bcbec0;}.b{fill:#939598;}.c{fill:none;}.c,.d{stroke:#231f20;stroke-linecap:round;stroke-linejoin:round;stroke-width:2px;}.d{fill:#00a14b;}.e{fill:#231f20;}</style></defs><title>11 statements</title><rect class="a" x="4.48" y="17.6" width="19.9" height="8.27"/><rect class="b" x="4.48" y="47.23" width="19.9" height="8.27"/><line class="c" x1="31.08" y1="78.28" x2="63.44" y2="78.28"/><line class="c" x1="2.67" y1="58.38" x2="91.77" y2="58.38"/><line class="c" x1="45.46" y1="58.38" x2="40.79" y2="78.28"/><line class="c" x1="49.78" y1="58.38" x2="54.45" y2="78.28"/><polyline class="d" points="74.94 27.59 72.78 18.6 85.36 18.6 82.85 27.59"/><path class="d" d="M64.94,55.87c0-16,6.33-29,14.13-29s14.14,13,14.14,29Z"/><path class="e" d="M78.37,52.76V50.17a7.38,7.38,0,0,1-3.92-1.12l.61-1.72a6.91,6.91,0,0,0,3.69,1.1c1.82,0,3-1,3-2.51s-1-2.28-2.89-3.05c-2.62-1-4.23-2.2-4.23-4.43a4.21,4.21,0,0,1,3.87-4.13V31.73h1.59v2.48a6.81,6.81,0,0,1,3.33.9l-.64,1.69a6.18,6.18,0,0,0-3.23-.87c-2,0-2.72,1.18-2.72,2.2,0,1.33,1,2,3.18,2.92,2.64,1.08,4,2.41,4,4.69a4.46,4.46,0,0,1-4,4.36v2.66Z"/><path class="c" d="M24.37,30.49V17.6H4.48V30.49s3.14,4.81,7.12,6.07c-4,1.26-7.12,6.07-7.12,6.07V55.52H24.37V42.63s-3.14-4.81-7.11-6.07C21.23,35.3,24.37,30.49,24.37,30.49Z"/><line class="c" x1="4.48" y1="25.87" x2="24.37" y2="25.87"/><line class="c" x1="4.48" y1="47.23" x2="24.37" y2="47.23"/></svg>