<svg xmlns="http://www.w3.org/2000/svg" viewBox="0 0 146.4 146.4"><defs><style>.a{fill:none;stroke:#ffde17;stroke-linecap:round;stroke-linejoin:round;stroke-width:4px;}.b{fill:#00a14b;}</style></defs><title>11 statements</title><circle class="a" cx="73.2" cy="93.52" r="48.23"/><circle class="a" cx="73.2" cy="93.52" r="34.88"/><path class="b" d="M71.07,119.17v-6.31a18.24,18.24,0,0,1-9.55-2.75l1.5-4.19a16.63,16.63,0,0,0,9,2.69c4.44,0,7.44-2.56,7.44-6.12S77,96.93,72.39,95.05C66,92.56,62.08,89.68,62.08,84.25c0-5.19,3.69-9.12,9.43-10.06V67.88h3.88v6.06a16.57,16.57,0,0,1,8.12,2.19l-1.57,4.12a15.07,15.07,0,0,0-7.87-2.13c-4.81,0-6.62,2.88-6.62,5.38,0,3.24,2.31,4.87,7.75,7.12,6.43,2.62,9.68,5.87,9.68,11.43,0,4.93-3.44,9.56-9.87,10.62v6.5Z"/><line class="a" x1="24.96" y1="37" x2="24.96" y2="92.32"/><line class="a" x1="119.44" y1="59.96" x2="119.44" y2="78.55"/><line class="a" x1="119.44" y1="47.44" x2="119.44" y2="35.26"/><line class="a" x1="95.57" y1="33.52" x2="95.57" y2="49.59"/><line class="a" x1="95.57" y1="21.34" x2="95.57" y2="11.95"/><line class="a" x1="72.33" y1="11.95" x2="72.33" y2="31.78"/><line class="a" x1="55.54" y1="47.44" x2="55.54" y2="30.04"/><line class="a" x1="55.54" y1="16.64" x2="55.54" y2="4.64"/><line class="a" x1="39.89" y1="57.45" x2="39.89" y2="37"/><line class="a" x1="39.89" y1="21.86" x2="39.89" y2="11.95"/></svg>