<svg xmlns="http://www.w3.org/2000/svg" viewBox="0 0 83.67 83.67"><defs><style>.a,.b{fill:none;stroke:#231f20;stroke-linejoin:round;stroke-width:4.48px;}.a{stroke-linecap:round;}.c{fill:#fff;}.d{fill:#00a14b;stroke:#00a14b;stroke-miterlimit:10;}</style></defs><title>11 statements</title><polyline class="a" points="41.84 3.16 41.84 41.84 41.84 80.51"/><line class="a" x1="3.16" y1="41.84" x2="80.51" y2="41.84"/><path class="a" d="M72.19,17.88c-40.22,15.92-60.7,0-60.7,0"/><path class="b" d="M11.49,65.79s32.24-16.07,60.7,1.4"/><path class="b" d="M35.07,3.16S.86,38.93,34.37,79.78"/><path class="a" d="M46.82,3.49s35.57,35.07,2.46,76.29"/><circle class="a" cx="41.84" cy="41.84" r="38.67"/><circle class="c" cx="41.84" cy="41.84" r="15.29"/><path class="d" d="M40.8,54.32V51.25a8.84,8.84,0,0,1-4.65-1.34l.73-2a8.19,8.19,0,0,0,4.38,1.3c2.16,0,3.62-1.24,3.62-3s-1.19-2.71-3.44-3.62c-3.1-1.22-5-2.62-5-5.26s1.8-4.44,4.59-4.9V29.35H42.9V32.3a8.22,8.22,0,0,1,4,1.06l-.77,2a7.36,7.36,0,0,0-3.83-1C39.92,34.34,39,35.74,39,37c0,1.58,1.12,2.37,3.77,3.46,3.13,1.28,4.71,2.86,4.71,5.57a5.29,5.29,0,0,1-4.8,5.17v3.16Z"/></svg>