<svg xmlns="http://www.w3.org/2000/svg" viewBox="0 0 133.85 133.8"><defs><style>.cls-1{fill:#231f20;}.cls-2{fill:none;stroke:#ffdd15;stroke-width:2.45px;}.cls-2,.cls-3,.cls-4{stroke-linecap:round;stroke-linejoin:round;}.cls-3{fill:#fff;stroke:#00a14b;}.cls-3,.cls-4{stroke-width:1.57px;}.cls-4{fill:#00a14b;stroke:#231f20;}</style></defs><title>Lean Management Case Study</title><g id="Layer_1" data-name="Layer 1"><path class="cls-1" d="M21.38,98.27l4.7,10.33H24.65l-1.15-2.54H19.27l-1.14,2.54H16.72Zm0,3.1-1.59,3.55H23Z"/><path class="cls-1" d="M32,106.63v1.56a4,4,0,0,1-2,.59,3.42,3.42,0,0,1-3.34-3.32,3.35,3.35,0,0,1,1-2.49,3.42,3.42,0,0,1,2.51-1,4.09,4.09,0,0,1,1.85.47V104a3.67,3.67,0,0,0-1.94-.65,2.14,2.14,0,0,0-1.48.59,1.86,1.86,0,0,0-.63,1.39,2.07,2.07,0,0,0,.6,1.51,1.94,1.94,0,0,0,1.45.62A3.61,3.61,0,0,0,32,106.63Z"/><path class="cls-1" d="M38.18,106.63v1.56a4,4,0,0,1-2,.59,3.42,3.42,0,0,1-3.34-3.32,3.35,3.35,0,0,1,1-2.49,3.4,3.4,0,0,1,2.5-1,4.06,4.06,0,0,1,1.85.47V104a3.64,3.64,0,0,0-1.93-.65,2.1,2.1,0,0,0-1.48.59,1.86,1.86,0,0,0-.63,1.39,2.11,2.11,0,0,0,.59,1.51,2,2,0,0,0,1.45.62A3.58,3.58,0,0,0,38.18,106.63Z"/><path class="cls-1" d="M39.15,105.35a3.16,3.16,0,0,1,1-2.34,3.28,3.28,0,0,1,2.39-1A3.38,3.38,0,0,1,45,103a3.18,3.18,0,0,1,1,2.36,3.32,3.32,0,0,1-1,2.4,3.2,3.2,0,0,1-2.35,1,3.43,3.43,0,0,1-2.48-1A3.24,3.24,0,0,1,39.15,105.35Zm5.59,0a1.91,1.91,0,0,0-.63-1.43,2,2,0,0,0-1.48-.61,2.12,2.12,0,0,0-1.52.62,2,2,0,0,0-.64,1.46,1.91,1.91,0,0,0,.65,1.43,2.11,2.11,0,0,0,1.51.61,2.05,2.05,0,0,0,1.48-.63A2,2,0,0,0,44.74,105.36Z"/><path class="cls-1" d="M47.27,102.16h1.36v3.63c0,1.12.49,1.68,1.48,1.68a1.31,1.31,0,0,0,1-.45,1.86,1.86,0,0,0,.38-1.23v-3.63h1.34V106a2.66,2.66,0,0,1-.79,2,3,3,0,0,1-4,0,2.79,2.79,0,0,1-.77-2Z"/><path class="cls-1" d="M54.26,108.6v-6.44h1.33v1.07a5.68,5.68,0,0,1,1.06-1,2,2,0,0,1,1.07-.3,2.08,2.08,0,0,1,1.49.58,1.8,1.8,0,0,1,.62,1.39v4.65H58.47v-4.25a1.18,1.18,0,0,0-.34-.87,1.15,1.15,0,0,0-.86-.35,1.52,1.52,0,0,0-1.17.58,2,2,0,0,0-.49,1.39v3.5Z"/><path class="cls-1" d="M62,100.28h1.36v1.88h1.34v1.24H63.32v5.2H62v-5.2H60.89v-1.26H62Z"/><path class="cls-1" d="M65.61,100a1.06,1.06,0,0,1,1-1,1,1,0,0,1,.73.31,1,1,0,0,1,0,1.47,1,1,0,0,1-.73.3,1,1,0,0,1-.74-.3A1,1,0,0,1,65.61,100Zm.38,2.12h1.34v6.44H66Z"/><path class="cls-1" d="M69.11,108.6v-6.44h1.33v1.07a5.68,5.68,0,0,1,1.06-1,2,2,0,0,1,1.07-.3,2.08,2.08,0,0,1,1.49.58,1.8,1.8,0,0,1,.62,1.39v4.65H73.33v-4.25a1.22,1.22,0,0,0-.34-.87,1.18,1.18,0,0,0-.87-.35,1.52,1.52,0,0,0-1.17.58,2,2,0,0,0-.49,1.39v3.5Z"/><path class="cls-1" d="M81.74,102.16h1.33v6.19a3.22,3.22,0,0,1-.94,2.32,3.08,3.08,0,0,1-2.28,1,3.44,3.44,0,0,1-1.87-.55,3.21,3.21,0,0,1-1.25-1.68h1.41a2,2,0,0,0,1.76,1,1.78,1.78,0,0,0,1.3-.55,1.83,1.83,0,0,0,.54-1.33v-1.22a2.93,2.93,0,0,1-2.49,1.43,2.81,2.81,0,0,1-2.15-1,3.49,3.49,0,0,1-.92-2.41,3.43,3.43,0,0,1,.9-2.38,2.77,2.77,0,0,1,2.13-1,2.85,2.85,0,0,1,2.53,1.54Zm.19,3.21a2,2,0,0,0-.63-1.52,2.18,2.18,0,0,0-1.56-.61,2.09,2.09,0,0,0-1.5.64,2,2,0,0,0-.65,1.46,2.09,2.09,0,0,0,.64,1.54,2.05,2.05,0,0,0,1.52.65,2.17,2.17,0,0,0,2.18-2.16Z"/><path class="cls-1" d="M90,98.65h2.15a4.14,4.14,0,0,1,2.63.8,2.51,2.51,0,0,1,1,2,2.63,2.63,0,0,1-.66,1.77,3.55,3.55,0,0,1-2,1.07l2.89,4.26H94.38l-2.76-4.09h-.3v4.09H90Zm1.36,1.2v3.47c2,0,3-.54,3-1.74a1.47,1.47,0,0,0-.36-1A1.69,1.69,0,0,0,93,100,7.44,7.44,0,0,0,91.32,99.85Z"/><path class="cls-1" d="M102.4,102.16h1.36v6.44H102.4v-1.28a2.89,2.89,0,0,1-2.46,1.46,2.8,2.8,0,0,1-2.17-1,3.61,3.61,0,0,1,0-4.79,2.81,2.81,0,0,1,2.14-1,2.76,2.76,0,0,1,1.44.41,3,3,0,0,1,1.05,1.08Zm.19,3.24a2.05,2.05,0,0,0-.63-1.51,2.14,2.14,0,0,0-3,0,2,2,0,0,0-.65,1.47,2.15,2.15,0,0,0,.63,1.56,2,2,0,0,0,1.52.64,2.17,2.17,0,0,0,2.15-2.15Z"/><path class="cls-1" d="M106.24,100.28h1.36v1.88h1.34v1.24H107.6v5.2h-1.36v-5.2h-1.07v-1.26h1.07Z"/><path class="cls-1" d="M116.58,105.64h-5.5a2.17,2.17,0,0,0,.81,1.45,2.32,2.32,0,0,0,1.39.46,2.41,2.41,0,0,0,1.94-1l1,.75a3.6,3.6,0,0,1-3,1.44,3.23,3.23,0,0,1-2.41-1,3.34,3.34,0,0,1-1-2.45,3.3,3.3,0,0,1,1-2.37,3.33,3.33,0,0,1,4.78,0A3.58,3.58,0,0,1,116.58,105.64Zm-5.36-1.08h3.93a2.12,2.12,0,0,0-3.93,0Z"/><path class="cls-1" d="M19.23,124.55a3.2,3.2,0,0,1,1-2.34,3.3,3.3,0,0,1,2.4-1,3.37,3.37,0,0,1,2.42,1,3.18,3.18,0,0,1,1,2.36,3.32,3.32,0,0,1-1,2.4,3.2,3.2,0,0,1-2.35,1,3.45,3.45,0,0,1-2.48-1A3.24,3.24,0,0,1,19.23,124.55Zm5.59,0a1.94,1.94,0,0,0-.62-1.43,2,2,0,0,0-1.49-.61,2.12,2.12,0,0,0-1.52.62,2,2,0,0,0-.63,1.46A1.9,1.9,0,0,0,21.2,126a2.11,2.11,0,0,0,1.51.61,2,2,0,0,0,1.48-.63A2,2,0,0,0,24.82,124.56Z"/><path class="cls-1" d="M31.48,117.76v1.38a1.93,1.93,0,0,0-1-.4.67.67,0,0,0-.56.27,1.21,1.21,0,0,0-.2.74v1.61h1.79v1.24H29.69v5.2H28.33v-5.2H27.14v-1.24h1.19v-1.52a2.61,2.61,0,0,1,.57-1.76,1.9,1.9,0,0,1,1.51-.65A2.29,2.29,0,0,1,31.48,117.76Z"/><path class="cls-1" d="M38.15,117.85h2.16a4.13,4.13,0,0,1,2.62.8,2.51,2.51,0,0,1,1,2,2.63,2.63,0,0,1-.66,1.77,3.55,3.55,0,0,1-2,1.07l2.89,4.26H42.57l-2.76-4.09h-.3v4.09H38.15Zm1.36,1.2v3.47c2,0,3-.54,3-1.74a1.51,1.51,0,0,0-.35-1,1.82,1.82,0,0,0-.94-.55A7.44,7.44,0,0,0,39.51,119.05Z"/><path class="cls-1" d="M51.77,124.84h-5.5a2.17,2.17,0,0,0,.81,1.45,2.32,2.32,0,0,0,1.39.46,2.41,2.41,0,0,0,1.94-1l1,.75a3.6,3.6,0,0,1-3,1.44A3.23,3.23,0,0,1,46,127a3.38,3.38,0,0,1-1-2.45,3.3,3.3,0,0,1,1-2.37,3.33,3.33,0,0,1,4.78,0A3.58,3.58,0,0,1,51.77,124.84Zm-5.36-1.08h3.93a2.12,2.12,0,0,0-3.93,0Z"/><path class="cls-1" d="M53.77,119.48h1.36v1.88h1.34v1.24H55.13v5.2H53.77v-5.2H52.7v-1.26h1.07Z"/><path class="cls-1" d="M57.43,121.36h1.36V125c0,1.12.49,1.68,1.48,1.68a1.31,1.31,0,0,0,1-.45,1.86,1.86,0,0,0,.38-1.23v-3.63H63v3.85a2.66,2.66,0,0,1-.79,2,3,3,0,0,1-4,0,2.79,2.79,0,0,1-.77-2Z"/><path class="cls-1" d="M66.19,121.36v1.33a4.2,4.2,0,0,1,.89-1.16,1.72,1.72,0,0,1,1.12-.35,2.67,2.67,0,0,1,.57.09l-.42,1.36a3.84,3.84,0,0,0-.51-.08,1.55,1.55,0,0,0-1.16.48,1.65,1.65,0,0,0-.46,1.2v3.57H64.86v-6.44Z"/><path class="cls-1" d="M70.07,127.8v-6.44H71.4v1.07a5.38,5.38,0,0,1,1.06-1,2,2,0,0,1,1.06-.3,2.09,2.09,0,0,1,1.5.58,1.84,1.84,0,0,1,.62,1.39v4.65H74.28v-4.25a1.18,1.18,0,0,0-.34-.87,1.14,1.14,0,0,0-.86-.34,1.5,1.5,0,0,0-1.17.57,2,2,0,0,0-.49,1.39v3.5Z"/><path class="cls-1" d="M83.28,117.54l1.1.5A13.37,13.37,0,0,0,83.2,121a12.34,12.34,0,0,0-.32,2.93,15.48,15.48,0,0,0,.31,3.26,13.9,13.9,0,0,0,1.12,3.08l-1,.58a14,14,0,0,1-1.59-6.57,16.24,16.24,0,0,1,.33-3.39A14,14,0,0,1,83.28,117.54Z"/><path class="cls-1" d="M89.93,117.47l4.7,10.33H93.2l-1.15-2.54H87.82l-1.14,2.54H85.27Zm0,3.1-1.59,3.55h3.2Z"/><path class="cls-1" d="M96.09,117.85h2.15a4.09,4.09,0,0,1,2.62.8,2.49,2.49,0,0,1,1,2,2.63,2.63,0,0,1-.66,1.77,3.59,3.59,0,0,1-2,1.07l2.89,4.26h-1.56l-2.76-4.09h-.3v4.09H96.09Zm1.36,1.2v3.47q3,.06,3-1.74a1.46,1.46,0,0,0-.35-1,1.75,1.75,0,0,0-.93-.55A7.5,7.5,0,0,0,97.45,119.05Z"/><path class="cls-1" d="M104.09,117.85h2.15a4.09,4.09,0,0,1,2.62.8,2.49,2.49,0,0,1,1,2,2.63,2.63,0,0,1-.66,1.77,3.59,3.59,0,0,1-2,1.07l2.89,4.26h-1.56l-2.76-4.09h-.3v4.09h-1.36Zm1.36,1.2v3.47q3,.06,3-1.74a1.46,1.46,0,0,0-.35-1,1.75,1.75,0,0,0-.93-.55A7.5,7.5,0,0,0,105.45,119.05Z"/><path class="cls-1" d="M111.52,118l1.07-.5a13,13,0,0,1,1.67,6.71,14.84,14.84,0,0,1-1.58,6.64l-1.08-.57a17.53,17.53,0,0,0,1.21-3.43,15.76,15.76,0,0,0-.08-5.9A11.73,11.73,0,0,0,111.52,118Z"/><path class="cls-2" d="M28.86,59,32,52.42A38.18,38.18,0,1,0,84.07,2.73"/><line class="cls-2" x1="39.46" y1="53.59" x2="31.95" y2="52.42"/><polyline class="cls-3" points="37.7 3.94 94.83 3.94 94.83 29.96"/><polyline class="cls-3" points="34.84 6.8 91.96 6.8 91.96 32.82"/><rect class="cls-4" x="31.31" y="9.97" width="57.59" height="25.81" transform="translate(-0.03 0.08) rotate(-0.08)"/><path class="cls-4" d="M42.28,10a11,11,0,0,1-11,11"/><path class="cls-4" d="M77.91,9.94a11,11,0,0,0,11,11"/><path class="cls-4" d="M42.31,35.45a11,11,0,0,0-11-11"/><path class="cls-4" d="M77.94,35.4a11,11,0,0,1,11-11"/><path class="cls-1" d="M59.4,31.69V29.52a6.2,6.2,0,0,1-3.28-.94l.51-1.44a5.76,5.76,0,0,0,3.09.92c1.53,0,2.56-.88,2.56-2.11S61.43,24,59.84,23.4c-2.19-.86-3.55-1.84-3.55-3.71a3.53,3.53,0,0,1,3.24-3.47V14.06h1.34v2.09a5.62,5.62,0,0,1,2.79.75l-.53,1.41a5.22,5.22,0,0,0-2.71-.72c-1.65,0-2.28,1-2.27,1.85,0,1.11.79,1.67,2.66,2.44,2.22.9,3.33,2,3.34,3.93a3.73,3.73,0,0,1-3.39,3.65v2.24Z"/></g></svg>