<svg xmlns="http://www.w3.org/2000/svg" viewBox="0 0 131.8 131.74"><defs><style>.cls-1,.cls-3{fill:none;}.cls-1,.cls-2,.cls-3{stroke:#231f20;stroke-linecap:round;stroke-linejoin:round;stroke-width:1.81px;}.cls-1{opacity:0.2;}.cls-2{fill:#00a14b;}.cls-4{fill:#231f20;}</style></defs><title>Lean Management Case Study</title><g id="Layer_1" data-name="Layer 1"><line class="cls-1" x1="50.88" y1="51.65" x2="41.26" y2="51.58"/><rect class="cls-2" x="32.64" y="25.09" width="66.52" height="29.81" transform="matrix(1, -0.02, 0.02, 1, -0.83, 1.4)"/><path class="cls-3" d="M86.15,24.66A12.69,12.69,0,0,0,99.1,37.07"/><path class="cls-3" d="M86.78,54.06a12.69,12.69,0,0,1,12.41-13"/><path class="cls-4" d="M65.28,50.2l-.06-2.51a7.19,7.19,0,0,1-3.81-1L62,45a6.63,6.63,0,0,0,3.59,1c1.76,0,2.93-1.08,2.9-2.5s-1-2.18-2.86-2.89c-2.56-.94-4.14-2-4.19-4.2a4.09,4.09,0,0,1,3.66-4.08l0-2.5,1.54,0,0,2.4a6.7,6.7,0,0,1,3.24.8l-.58,1.65a6,6,0,0,0-3.15-.77c-1.91,0-2.6,1.19-2.58,2.18,0,1.29,1,1.92,3.14,2.77,2.57,1,3.89,2.25,3.94,4.46a4.32,4.32,0,0,1-3.83,4.3l0,2.57Z"/><path class="cls-3" d="M37.47,20.33a32.66,32.66,0,0,1,56.87-.39V9.3"/><line class="cls-3" x1="84.71" y1="19.86" x2="94.34" y2="19.94"/><path class="cls-3" d="M94.34,59.43a32.67,32.67,0,0,1-56.87.39V70.45"/><path class="cls-4" d="M10,94.2l7.35,7.57V94.6h1.36V105l-7.36-7.53v7.07H10Z"/><path class="cls-4" d="M27.05,101.59h-5.5a2.14,2.14,0,0,0,.82,1.45,2.27,2.27,0,0,0,1.38.46,2.41,2.41,0,0,0,1.94-1l1,.75a3.58,3.58,0,0,1-3,1.44,3.27,3.27,0,0,1-2.41-1,3.37,3.37,0,0,1-1-2.45,3.26,3.26,0,0,1,1-2.37,3.32,3.32,0,0,1,4.77,0A3.58,3.58,0,0,1,27.05,101.59Zm-5.36-1.08h3.94a2.08,2.08,0,0,0-1.94-1.33A2.05,2.05,0,0,0,21.69,100.51Z"/><path class="cls-4" d="M29.05,96.23h1.36v1.88h1.34v1.24H30.41v5.2H29.05v-5.2H28V98.09h1.07Z"/><path class="cls-4" d="M37.82,94.6h2a4.36,4.36,0,0,1,2.73.8,2.5,2.5,0,0,1,1,2.07,2.66,2.66,0,0,1-1.1,2.15,5.25,5.25,0,0,1-3.33.84v4.09H37.82Zm1.34,1.19v3.48a4.85,4.85,0,0,0,2.27-.43,1.44,1.44,0,0,0,.74-1.34,1.56,1.56,0,0,0-.56-1.2A3.93,3.93,0,0,0,39.16,95.79Z"/><path class="cls-4" d="M46.88,98.11v1.33a4,4,0,0,1,.89-1.16,1.72,1.72,0,0,1,1.12-.35,2.67,2.67,0,0,1,.57.09L49,99.38a3.84,3.84,0,0,0-.51-.08,1.55,1.55,0,0,0-1.16.48,1.65,1.65,0,0,0-.46,1.2v3.57H45.55V98.11Z"/><path class="cls-4" d="M57.13,101.59h-5.5a2.17,2.17,0,0,0,.81,1.45,2.32,2.32,0,0,0,1.39.46,2.41,2.41,0,0,0,1.94-1l1,.75a3.58,3.58,0,0,1-3,1.44,3.27,3.27,0,0,1-2.41-1,3.38,3.38,0,0,1-1-2.45,3.3,3.3,0,0,1,1-2.37,3.24,3.24,0,0,1,2.4-1,3.19,3.19,0,0,1,2.38,1A3.58,3.58,0,0,1,57.13,101.59Zm-5.36-1.08h3.94a2.09,2.09,0,0,0-1.94-1.33A2.05,2.05,0,0,0,51.77,100.51Z"/><path class="cls-4" d="M62.58,98.87l-.9.8a5.52,5.52,0,0,0-.61-.38,1.48,1.48,0,0,0-.61-.13c-.56,0-.83.21-.83.61s.35.58,1,.85a4.22,4.22,0,0,1,1.51.91,1.64,1.64,0,0,1,.46,1.18,1.87,1.87,0,0,1-.66,1.42,2.26,2.26,0,0,1-1.56.6,2.64,2.64,0,0,1-2.25-1.26l1.07-.52a1.68,1.68,0,0,0,1.18.55,1.22,1.22,0,0,0,.73-.23.67.67,0,0,0,.32-.54c0-.36-.37-.68-1.11-1a4.15,4.15,0,0,1-1.53-.87,1.49,1.49,0,0,1-.43-1.09A1.71,1.71,0,0,1,59,98.46a2.23,2.23,0,0,1,1.51-.53A3.34,3.34,0,0,1,62.58,98.87Z"/><path class="cls-4" d="M70.46,101.59H65a2.17,2.17,0,0,0,.81,1.45,2.32,2.32,0,0,0,1.39.46,2.41,2.41,0,0,0,1.94-1l1,.75a3.6,3.6,0,0,1-3,1.44,3.27,3.27,0,0,1-2.41-1,3.38,3.38,0,0,1-1-2.45,3.3,3.3,0,0,1,1-2.37,3.33,3.33,0,0,1,4.78,0A3.58,3.58,0,0,1,70.46,101.59Zm-5.36-1.08H69a2.12,2.12,0,0,0-3.93,0Z"/><path class="cls-4" d="M71.77,104.55V98.11H73.1v1.07a5.38,5.38,0,0,1,1.06-1,2,2,0,0,1,1.06-.3,2.11,2.11,0,0,1,1.5.58,1.82,1.82,0,0,1,.62,1.39v4.65H76V100.3a1.18,1.18,0,0,0-.34-.87,1.16,1.16,0,0,0-.86-.35,1.52,1.52,0,0,0-1.18.58,2.09,2.09,0,0,0-.49,1.39v3.5Z"/><path class="cls-4" d="M79.46,96.23h1.36v1.88h1.35v1.24H80.82v5.2H79.46v-5.2H78.39V98.09h1.07Z"/><path class="cls-4" d="M87.08,94.62h1.44l3.12,7,3.15-7h1.45l-4.62,10.27Z"/><path class="cls-4" d="M101.75,98.11h1.36v6.44h-1.36v-1.28a2.89,2.89,0,0,1-2.46,1.46,2.8,2.8,0,0,1-2.17-1,3.49,3.49,0,0,1-.91-2.43,3.44,3.44,0,0,1,.91-2.36,2.81,2.81,0,0,1,2.14-1,2.76,2.76,0,0,1,1.44.41,3,3,0,0,1,1,1.08Zm.19,3.24a2.05,2.05,0,0,0-.63-1.51,2.14,2.14,0,0,0-3,0,2,2,0,0,0-.65,1.47,2.15,2.15,0,0,0,.63,1.56,2.15,2.15,0,0,0,3.67-1.51Z"/><path class="cls-4" d="M105.34,94.41h1.36v10.14h-1.36Z"/><path class="cls-4" d="M108.43,98.11h1.35v3.63c0,1.12.5,1.68,1.48,1.68a1.28,1.28,0,0,0,1-.45,1.81,1.81,0,0,0,.38-1.23V98.11H114V102a2.7,2.7,0,0,1-.79,2,2.76,2.76,0,0,1-2,.78,2.71,2.71,0,0,1-2-.78,2.75,2.75,0,0,1-.77-2Z"/><path class="cls-4" d="M122.1,101.59h-5.5a2.18,2.18,0,0,0,.82,1.45,2.32,2.32,0,0,0,1.39.46,2.42,2.42,0,0,0,1.94-1l1,.75a3.6,3.6,0,0,1-3,1.44,3.26,3.26,0,0,1-2.41-1,3.34,3.34,0,0,1-1-2.45,3.3,3.3,0,0,1,1-2.37,3.33,3.33,0,0,1,4.78,0A3.54,3.54,0,0,1,122.1,101.59Zm-5.35-1.08h3.93a2.12,2.12,0,0,0-3.93,0Z"/><path class="cls-4" d="M49.84,113.49l1.09.5a13.79,13.79,0,0,0-1.17,3,12.34,12.34,0,0,0-.32,2.93,14.85,14.85,0,0,0,.31,3.26,14.53,14.53,0,0,0,1.11,3.08l-1,.58a14,14,0,0,1-1.59-6.57,16.24,16.24,0,0,1,.33-3.39A13.63,13.63,0,0,1,49.84,113.49Z"/><path class="cls-4" d="M52.69,113.4,60.05,121V113.8h1.36v10.41l-7.36-7.53v7.07H52.69Z"/><path class="cls-4" d="M63.76,113.8h2a4.41,4.41,0,0,1,2.74.8,2.49,2.49,0,0,1,1,2.07,2.65,2.65,0,0,1-1.09,2.15,5.28,5.28,0,0,1-3.34.84v4.09H63.76ZM65.1,115v3.48a4.82,4.82,0,0,0,2.27-.43,1.42,1.42,0,0,0,.74-1.34,1.52,1.52,0,0,0-.56-1.2A3.91,3.91,0,0,0,65.1,115Z"/><path class="cls-4" d="M70.61,113.82h1.44l3.12,7,3.15-7h1.45l-4.61,10.27Z"/><path class="cls-4" d="M80.75,114l1.07-.5a13,13,0,0,1,1.67,6.71,14.84,14.84,0,0,1-1.58,6.64l-1.08-.57A17.53,17.53,0,0,0,82,122.84a15.76,15.76,0,0,0-.08-5.9A11.73,11.73,0,0,0,80.75,114Z"/><path class="cls-3" d="M45.41,25.81A12.68,12.68,0,0,1,33,38.76"/><path class="cls-3" d="M46,55.22a12.68,12.68,0,0,0-13-12.42"/></g></svg>