<svg xmlns="http://www.w3.org/2000/svg" viewBox="0 0 145.77 145.71"><defs><style>.cls-1{fill:#bbbdbf;}.cls-2{fill:#929497;}.cls-3{fill:none;}.cls-3,.cls-4{stroke:#231f20;stroke-linecap:round;stroke-linejoin:round;stroke-width:2px;}.cls-4{fill:#00a14b;}.cls-5{fill:#231f20;}</style></defs><title>Lean Management Case Study</title><g id="Layer_1" data-name="Layer 1"><rect class="cls-1" x="29.42" y="10.53" width="19.9" height="8.27"/><rect class="cls-2" x="29.42" y="40.16" width="19.9" height="8.27"/><line class="cls-3" x1="56.03" y1="71.2" x2="88.38" y2="71.2"/><line class="cls-3" x1="27.62" y1="51.3" x2="116.72" y2="51.3"/><line class="cls-3" x1="70.41" y1="51.3" x2="65.73" y2="71.2"/><line class="cls-3" x1="74.72" y1="51.3" x2="79.4" y2="71.2"/><polyline class="cls-4" points="99.89 20.52 97.73 11.53 110.31 11.53 107.79 20.52"/><path class="cls-4" d="M89.89,48.79c0-16,6.33-29,14.13-29s14.13,13,14.13,29Z"/><path class="cls-5" d="M103.31,45.69V43.1A7.53,7.53,0,0,1,99.39,42l.62-1.71a6.85,6.85,0,0,0,3.69,1.1c1.82,0,3-1,3-2.51s-1-2.28-2.9-3.05c-2.61-1-4.23-2.21-4.23-4.43a4.22,4.22,0,0,1,3.87-4.13V24.65h1.59v2.49a6.75,6.75,0,0,1,3.33.9l-.64,1.69a6.17,6.17,0,0,0-3.23-.88c-2,0-2.71,1.18-2.71,2.21,0,1.33,1,2,3.17,2.92,2.64,1.08,4,2.41,4,4.69a4.45,4.45,0,0,1-4,4.35v2.67Z"/><path class="cls-3" d="M49.32,23.41V10.53H29.42V23.41s3.14,4.82,7.12,6.08c-4,1.25-7.12,6.07-7.12,6.07V48.44h19.9V35.56s-3.14-4.82-7.12-6.07C46.18,28.23,49.32,23.41,49.32,23.41Z"/><line class="cls-3" x1="29.42" y1="18.8" x2="49.32" y2="18.8"/><line class="cls-3" x1="29.42" y1="40.16" x2="49.32" y2="40.16"/><path class="cls-5" d="M2.43,101.59H3.78v10H2.43Z"/><path class="cls-5" d="M5.58,111.54v-6.45H6.91v1.07a5.38,5.38,0,0,1,1.06-1,2,2,0,0,1,1.06-.3,2.13,2.13,0,0,1,1.5.58,1.85,1.85,0,0,1,.62,1.39v4.66H9.79v-4.26a1.18,1.18,0,0,0-.34-.87,1.14,1.14,0,0,0-.86-.34,1.49,1.49,0,0,0-1.17.57,2.08,2.08,0,0,0-.5,1.39v3.51Z"/><path class="cls-5" d="M13.28,103.22h1.36v1.87H16v1.25H14.64v5.2H13.28v-5.2H12.21v-1.26h1.07Z"/><path class="cls-5" d="M23.61,108.58h-5.5a2.17,2.17,0,0,0,.82,1.45,2.32,2.32,0,0,0,1.38.45,2.4,2.4,0,0,0,1.94-1l1,.75a3.57,3.57,0,0,1-3,1.45,3.21,3.21,0,0,1-2.4-1,3.32,3.32,0,0,1-1-2.44,3.26,3.26,0,0,1,1-2.37,3.32,3.32,0,0,1,4.78,0A3.59,3.59,0,0,1,23.61,108.58Zm-5.36-1.09h3.94a2.09,2.09,0,0,0-1.94-1.33A2.07,2.07,0,0,0,18.25,107.49Z"/><path class="cls-5" d="M26.69,105.09v1.33a4.13,4.13,0,0,1,.89-1.15,1.7,1.7,0,0,1,1.13-.36,2.2,2.2,0,0,1,.56.1l-.42,1.36a2.63,2.63,0,0,0-.51-.08,1.53,1.53,0,0,0-1.15.48,1.66,1.66,0,0,0-.47,1.2v3.57H25.36v-6.45Z"/><path class="cls-5" d="M30.57,111.54v-6.45H31.9v1.07a5.68,5.68,0,0,1,1.06-1,2,2,0,0,1,1.07-.3,2.13,2.13,0,0,1,1.49.58,1.82,1.82,0,0,1,.62,1.39v4.66H34.78v-4.26a1.18,1.18,0,0,0-.34-.87,1.14,1.14,0,0,0-.86-.34,1.5,1.5,0,0,0-1.17.57,2.07,2.07,0,0,0-.49,1.39v3.51Z"/><path class="cls-5" d="M43.26,105.09h1.36v6.45H43.26v-1.28a2.91,2.91,0,0,1-2.46,1.46,2.84,2.84,0,0,1-2.18-1,3.51,3.51,0,0,1-.9-2.43,3.39,3.39,0,0,1,.91-2.36,2.79,2.79,0,0,1,2.14-1,2.73,2.73,0,0,1,1.44.42,2.86,2.86,0,0,1,1,1.08Zm.19,3.25a2.17,2.17,0,0,0-2.15-2.15,2.09,2.09,0,0,0-1.51.63,2,2,0,0,0-.64,1.47,2.11,2.11,0,0,0,.63,1.55,2,2,0,0,0,1.52.64,2.17,2.17,0,0,0,2.15-2.14Z"/><path class="cls-5" d="M46.85,101.4h1.36v10.14H46.85Z"/><path class="cls-5" d="M54.92,101.59h2.16a4.05,4.05,0,0,1,2.62.8,2.47,2.47,0,0,1,1,2,2.66,2.66,0,0,1-.65,1.76,3.69,3.69,0,0,1-2,1.08l2.89,4.26H59.35l-2.76-4.1h-.31v4.1H54.92Zm1.36,1.2v3.47c2,0,3-.54,3-1.75a1.53,1.53,0,0,0-.35-1,1.78,1.78,0,0,0-.94-.55A8.11,8.11,0,0,0,56.28,102.79Z"/><path class="cls-5" d="M67.37,105.09h1.36v6.45H67.37v-1.28a2.91,2.91,0,0,1-2.46,1.46,2.82,2.82,0,0,1-2.18-1,3.51,3.51,0,0,1-.9-2.43,3.39,3.39,0,0,1,.91-2.36,2.79,2.79,0,0,1,2.14-1,2.67,2.67,0,0,1,1.43.42,2.82,2.82,0,0,1,1.06,1.08Zm.19,3.25a2,2,0,0,0-.64-1.52,2.12,2.12,0,0,0-3,0,2,2,0,0,0-.64,1.47,2.11,2.11,0,0,0,.63,1.55,2,2,0,0,0,1.51.64,2.17,2.17,0,0,0,2.16-2.14Z"/><path class="cls-5" d="M71.21,103.22h1.35v1.87h1.35v1.25H72.56v5.2H71.21v-5.2H70.14v-1.26h1.07Z"/><path class="cls-5" d="M81.54,108.58H76a2.17,2.17,0,0,0,.82,1.45,2.32,2.32,0,0,0,1.38.45,2.4,2.4,0,0,0,1.94-1l1,.75a3.57,3.57,0,0,1-3,1.45,3.21,3.21,0,0,1-2.4-1,3.32,3.32,0,0,1-1-2.44,3.26,3.26,0,0,1,1-2.37,3.31,3.31,0,0,1,4.77,0A3.55,3.55,0,0,1,81.54,108.58Zm-5.36-1.09h3.94a2.09,2.09,0,0,0-1.94-1.33A2.07,2.07,0,0,0,76.18,107.49Z"/><path class="cls-5" d="M87.16,108.29a3.24,3.24,0,0,1,1-2.35,3.34,3.34,0,0,1,2.4-1,3.38,3.38,0,0,1,2.43,1,3.19,3.19,0,0,1,1,2.36,3.3,3.3,0,0,1-1,2.39,3.23,3.23,0,0,1-2.36,1,3.42,3.42,0,0,1-2.48-1A3.24,3.24,0,0,1,87.16,108.29Zm5.59,0a2,2,0,0,0-.62-1.43,2.08,2.08,0,0,0-1.49-.6,2.11,2.11,0,0,0-1.52.61,2,2,0,0,0-.63,1.47,1.88,1.88,0,0,0,.64,1.42,2.11,2.11,0,0,0,1.51.61,2.14,2.14,0,0,0,2.11-2.08Z"/><path class="cls-5" d="M99.41,101.5v1.37a2,2,0,0,0-1-.39.68.68,0,0,0-.57.26,1.23,1.23,0,0,0-.2.74v1.61h1.79v1.25H97.62v5.2H96.26v-5.2H95.07v-1.25h1.19v-1.52a2.58,2.58,0,0,1,.57-1.75,1.88,1.88,0,0,1,1.51-.66A2.31,2.31,0,0,1,99.41,101.5Z"/><path class="cls-5" d="M106.08,101.59h2.16a4.07,4.07,0,0,1,2.62.8,2.5,2.5,0,0,1,1,2,2.66,2.66,0,0,1-.65,1.76,3.69,3.69,0,0,1-2,1.08l2.89,4.26h-1.55l-2.77-4.1h-.3v4.1h-1.36Zm1.36,1.2v3.47c2,0,3-.54,3-1.75a1.53,1.53,0,0,0-.35-1,1.82,1.82,0,0,0-.94-.55A8.18,8.18,0,0,0,107.44,102.79Z"/><path class="cls-5" d="M119.7,108.58h-5.5A2.2,2.2,0,0,0,115,110a2.38,2.38,0,0,0,1.39.45,2.41,2.41,0,0,0,1.94-1l1,.75a3.57,3.57,0,0,1-3,1.45,3.24,3.24,0,0,1-2.41-1,3.36,3.36,0,0,1-1-2.44,3.3,3.3,0,0,1,1-2.37,3.25,3.25,0,0,1,2.4-1,3.19,3.19,0,0,1,2.38,1A3.59,3.59,0,0,1,119.7,108.58Zm-5.36-1.09h3.94a2.1,2.1,0,0,0-1.94-1.33A2.07,2.07,0,0,0,114.34,107.49Z"/><path class="cls-5" d="M121.7,103.22h1.36v1.87h1.34v1.25h-1.34v5.2H121.7v-5.2h-1.07v-1.26h1.07Z"/><path class="cls-5" d="M125.36,105.09h1.36v3.64c0,1.12.49,1.68,1.48,1.68a1.3,1.3,0,0,0,1-.45,1.86,1.86,0,0,0,.38-1.23v-3.64H131v3.85a2.68,2.68,0,0,1-.79,2,3,3,0,0,1-4,0,2.76,2.76,0,0,1-.78-2Z"/><path class="cls-5" d="M134.12,105.09v1.33a4.13,4.13,0,0,1,.89-1.15,1.7,1.7,0,0,1,1.13-.36,2.2,2.2,0,0,1,.56.1l-.42,1.36a2.63,2.63,0,0,0-.51-.08,1.53,1.53,0,0,0-1.15.48,1.66,1.66,0,0,0-.47,1.2v3.57h-1.36v-6.45Z"/><path class="cls-5" d="M138,111.54v-6.45h1.33v1.07a5.68,5.68,0,0,1,1.06-1,2,2,0,0,1,1.07-.3,2.13,2.13,0,0,1,1.49.58,1.82,1.82,0,0,1,.62,1.39v4.66h-1.36v-4.26a1.18,1.18,0,0,0-.34-.87,1.14,1.14,0,0,0-.86-.34,1.5,1.5,0,0,0-1.17.57,2.07,2.07,0,0,0-.49,1.39v3.51Z"/><path class="cls-5" d="M61.24,120.47l1.09.5a14,14,0,0,0-1.17,3,12.4,12.4,0,0,0-.32,2.93,14.78,14.78,0,0,0,.31,3.26,14.6,14.6,0,0,0,1.11,3.09l-1,.58a14.11,14.11,0,0,1-1.59-6.58,16.24,16.24,0,0,1,.33-3.39A14.37,14.37,0,0,1,61.24,120.47Z"/><path class="cls-5" d="M64.15,120.79h1.34v10H64.15Z"/><path class="cls-5" d="M67.89,120.79h2.16a4.07,4.07,0,0,1,2.62.8,2.5,2.5,0,0,1,1,2A2.62,2.62,0,0,1,73,125.4a3.62,3.62,0,0,1-2,1.08l2.89,4.26H72.31l-2.76-4.1h-.3v4.1H67.89Zm1.36,1.2v3.47c2,0,3-.54,3-1.74a1.5,1.5,0,0,0-.36-1,1.75,1.75,0,0,0-.93-.55A8.18,8.18,0,0,0,69.25,122Z"/><path class="cls-5" d="M75.89,120.79h2.16a4.07,4.07,0,0,1,2.62.8,2.5,2.5,0,0,1,1,2A2.62,2.62,0,0,1,81,125.4a3.62,3.62,0,0,1-2,1.08l2.89,4.26H80.31l-2.76-4.1h-.3v4.1H75.89Zm1.36,1.2v3.47c2,0,3-.54,3-1.74a1.5,1.5,0,0,0-.36-1,1.75,1.75,0,0,0-.93-.55A8.18,8.18,0,0,0,77.25,122Z"/><path class="cls-5" d="M83.33,121l1.07-.5a13,13,0,0,1,1.66,6.72,14.79,14.79,0,0,1-1.58,6.63l-1.08-.57a17.67,17.67,0,0,0,1.22-3.42,15.18,15.18,0,0,0,.23-2.77,14,14,0,0,0-.32-3.13A11.36,11.36,0,0,0,83.33,121Z"/></g></svg>