<svg xmlns="http://www.w3.org/2000/svg" viewBox="0 0 141.46 141.4"><defs><style>.cls-1{fill:#231f20;}.cls-2,.cls-4{fill:none;}.cls-2,.cls-3,.cls-4,.cls-6,.cls-7{stroke:#231f20;}.cls-2,.cls-3,.cls-4,.cls-6{stroke-linecap:round;stroke-linejoin:round;}.cls-2{stroke-width:2.35px;}.cls-3{fill:#00a14b;}.cls-3,.cls-4{stroke-width:1.27px;}.cls-5,.cls-6{fill:#ffdd15;}.cls-6,.cls-7{stroke-width:1.04px;}.cls-7{fill:#fff;stroke-miterlimit:10;}</style></defs><title>Lean Management Case Study</title><g id="Layer_1" data-name="Layer 1"><path class="cls-1" d="M2.8,109h2a4.39,4.39,0,0,1,2.74.8,2.5,2.5,0,0,1,1,2.07,2.66,2.66,0,0,1-1.1,2.15,5.31,5.31,0,0,1-3.33.84V119H2.8Zm1.35,1.19v3.48a4.88,4.88,0,0,0,2.27-.43,1.44,1.44,0,0,0,.74-1.34,1.56,1.56,0,0,0-.56-1.2A4,4,0,0,0,4.15,110.22Z"/><path class="cls-1" d="M11.87,112.54v1.33a4,4,0,0,1,.88-1.16,1.77,1.77,0,0,1,1.13-.35,2.51,2.51,0,0,1,.56.09L14,113.81a3.67,3.67,0,0,0-.52-.08,1.55,1.55,0,0,0-1.15.48,1.65,1.65,0,0,0-.46,1.2V119H10.54v-6.44Z"/><path class="cls-1" d="M15,115.73a3.2,3.2,0,0,1,1-2.34,3.32,3.32,0,0,1,2.4-1,3.37,3.37,0,0,1,2.43,1,3.2,3.2,0,0,1,1,2.36,3.32,3.32,0,0,1-1,2.4,3.22,3.22,0,0,1-2.36,1,3.45,3.45,0,0,1-2.48-1A3.26,3.26,0,0,1,15,115.73Zm5.59,0a1.94,1.94,0,0,0-.62-1.43,2,2,0,0,0-1.49-.61,2.12,2.12,0,0,0-1.52.62,2,2,0,0,0-.63,1.46,1.9,1.9,0,0,0,.64,1.43,2.12,2.12,0,0,0,1.51.61,2,2,0,0,0,1.48-.63A2,2,0,0,0,20.59,115.74Z"/><path class="cls-1" d="M27.25,108.94v1.38a1.93,1.93,0,0,0-1-.4.68.68,0,0,0-.57.27,1.21,1.21,0,0,0-.2.74v1.61h1.79v1.24H25.46V119H24.1v-5.2H22.91v-1.24H24.1V111a2.59,2.59,0,0,1,.57-1.76,1.9,1.9,0,0,1,1.51-.65A2.29,2.29,0,0,1,27.25,108.94Z"/><path class="cls-1" d="M28.44,110.42a1,1,0,0,1,.31-.73,1,1,0,0,1,.74-.31,1,1,0,0,1,.73.31,1,1,0,0,1,.31.73,1,1,0,0,1-.31.73,1,1,0,0,1-.73.31,1,1,0,0,1-.74-.31A1,1,0,0,1,28.44,110.42Zm.38,2.12h1.34V119H28.82Z"/><path class="cls-1" d="M32.63,110.66H34v1.88h1.34v1.24H34V119H32.63v-5.2H31.56v-1.26h1.07Z"/><path class="cls-1" d="M42,112.54h1.36V119H42V117.7a2.89,2.89,0,0,1-2.46,1.46,2.82,2.82,0,0,1-2.18-1,3.48,3.48,0,0,1-.9-2.43,3.39,3.39,0,0,1,.91-2.36,2.78,2.78,0,0,1,2.14-1,2.81,2.81,0,0,1,1.44.41A3,3,0,0,1,42,113.85Zm.19,3.24a2,2,0,0,0-.64-1.51,2.07,2.07,0,0,0-1.51-.63,2.12,2.12,0,0,0-1.51.62,2,2,0,0,0-.64,1.47,2.15,2.15,0,0,0,.63,1.56,2.16,2.16,0,0,0,3.67-1.51Z"/><path class="cls-1" d="M45.57,108.84h1.34v5a2.74,2.74,0,0,1,2.49-1.45,2.86,2.86,0,0,1,2.17,1,3.38,3.38,0,0,1,.91,2.37,3.55,3.55,0,0,1-.9,2.41,2.73,2.73,0,0,1-2.1,1,2.86,2.86,0,0,1-1.47-.41,3,3,0,0,1-1.1-1.13V119H45.57Zm5.48,6.89a2.17,2.17,0,0,0-2.17-2.14,2.14,2.14,0,0,0-1.5,3.67,2.15,2.15,0,0,0,1.56.62,2,2,0,0,0,1.48-.63A2.08,2.08,0,0,0,51.05,115.73Z"/><path class="cls-1" d="M53.94,110.42a1,1,0,0,1,.31-.73,1,1,0,0,1,.74-.31,1,1,0,0,1,.73.31,1,1,0,0,1,.31.73,1,1,0,0,1-.31.73,1,1,0,0,1-.73.31,1,1,0,0,1-.74-.31A1,1,0,0,1,53.94,110.42Zm.38,2.12h1.34V119H54.32Z"/><path class="cls-1" d="M57.88,108.84h1.36V119H57.88Z"/><path class="cls-1" d="M61,110.42a1,1,0,0,1,.31-.73,1,1,0,0,1,.75-.31,1,1,0,0,1,.73.31,1,1,0,0,1,.31.73,1.06,1.06,0,0,1-1,1,1,1,0,0,1-.75-.31A1,1,0,0,1,61,110.42Zm.38,2.12h1.35V119H61.33Z"/><path class="cls-1" d="M65.15,110.66h1.36v1.88h1.34v1.24H66.51V119H65.15v-5.2H64.08v-1.26h1.07Z"/><path class="cls-1" d="M68.63,112.54h1.54l2.34,3.5,1.62-3.5h1.4L71.18,122H69.76l2.12-4.61Z"/><path class="cls-1" d="M81.57,109h1.34v10H81.57Z"/><path class="cls-1" d="M84.72,119v-6.44h1.33v1.07a5.38,5.38,0,0,1,1.06-1,2,2,0,0,1,1.06-.3,2.12,2.12,0,0,1,1.5.58,1.82,1.82,0,0,1,.62,1.39V119H88.93v-4.25a1.18,1.18,0,0,0-1.2-1.22,1.52,1.52,0,0,0-1.18.58,2.09,2.09,0,0,0-.49,1.39V119Z"/><path class="cls-1" d="M97.38,108.84h1.35V119H97.4v-1.34a2.89,2.89,0,0,1-2.52,1.52,2.77,2.77,0,0,1-2.16-1,3.49,3.49,0,0,1-.9-2.42,3.41,3.41,0,0,1,.91-2.38,2.88,2.88,0,0,1,2.19-1,2.56,2.56,0,0,1,1.41.42,3.16,3.16,0,0,1,1,1.1Zm.16,6.91a2.16,2.16,0,1,0-3.67,1.5,2,2,0,0,0,1.49.65,2.09,2.09,0,0,0,1.54-.63A2,2,0,0,0,97.54,115.75Z"/><path class="cls-1" d="M107.24,116h-5.5a2.14,2.14,0,0,0,.82,1.45,2.27,2.27,0,0,0,1.38.46,2.41,2.41,0,0,0,1.94-1l1,.75a3.58,3.58,0,0,1-3,1.44,3.23,3.23,0,0,1-2.4-1,3.34,3.34,0,0,1-1-2.45,3.26,3.26,0,0,1,1-2.37,3.32,3.32,0,0,1,4.77,0A3.54,3.54,0,0,1,107.24,116Zm-5.36-1.08h3.94a2.08,2.08,0,0,0-1.94-1.33A2.05,2.05,0,0,0,101.88,114.94Z"/><path class="cls-1" d="M108.33,112.54H110l1.44,1.83,1.41-1.83h1.63l-2.24,2.91,2.71,3.53h-1.62l-1.9-2.46L109.49,119h-1.61l2.72-3.54Z"/><path class="cls-1" d="M122.28,108.72l1.09.5a13.79,13.79,0,0,0-1.17,3,12.34,12.34,0,0,0-.32,2.93,13.07,13.07,0,0,0,1.42,6.34l-1,.58a14.07,14.07,0,0,1-1.59-6.57,16.24,16.24,0,0,1,.33-3.39A14,14,0,0,1,122.28,108.72Z"/><path class="cls-1" d="M125.53,109h2a4.36,4.36,0,0,1,2.73.8,2.47,2.47,0,0,1,1,2.07,2.65,2.65,0,0,1-1.09,2.15,5.36,5.36,0,0,1-3.34.84V119h-1.34Zm1.34,1.19v3.48a4.85,4.85,0,0,0,2.27-.43,1.42,1.42,0,0,0,.74-1.34,1.52,1.52,0,0,0-.56-1.2A3.93,3.93,0,0,0,126.87,110.22Z"/><path class="cls-1" d="M133.19,109h1.34v10h-1.34Z"/><path class="cls-1" d="M136.37,109.22l1.07-.5a13,13,0,0,1,1.66,6.71,14.84,14.84,0,0,1-1.58,6.64l-1.08-.57a17.71,17.71,0,0,0,1.22-3.43,15.07,15.07,0,0,0,.23-2.76,14.11,14.11,0,0,0-.32-3.14A11.31,11.31,0,0,0,136.37,109.22Z"/><line class="cls-2" x1="49.82" y1="81.38" x2="87.91" y2="81.38"/><line class="cls-2" x1="16.37" y1="57.95" x2="121.27" y2="57.95"/><line class="cls-2" x1="66.75" y1="57.95" x2="61.25" y2="81.38"/><line class="cls-2" x1="71.83" y1="57.95" x2="77.33" y2="81.38"/><rect class="cls-3" x="8.45" y="35.85" width="46.78" height="20.96" transform="translate(-6.69 5.4) rotate(-8.77)"/><path class="cls-4" d="M15.94,38.18A8.92,8.92,0,0,1,8.48,48.35"/><path class="cls-4" d="M44.54,33.77a8.91,8.91,0,0,0,10.17,7.45"/><path class="cls-4" d="M19.09,58.62A8.92,8.92,0,0,0,8.92,51.16"/><path class="cls-4" d="M47.69,54.21A8.93,8.93,0,0,1,55.15,44"/><path class="cls-1" d="M32.35,53.5l-.27-1.74a5.15,5.15,0,0,1-2.76-.35l.24-1.22a4.71,4.71,0,0,0,2.6.36c1.22-.19,1.94-1,1.79-2s-.91-1.43-2.27-1.75c-1.86-.42-3.07-1-3.3-2.55a2.85,2.85,0,0,1,2.17-3.17l-.27-1.74,1.07-.17.26,1.67a4.69,4.69,0,0,1,2.34.26l-.26,1.2A4.22,4.22,0,0,0,31.43,42c-1.33.21-1.71,1.08-1.6,1.77.14.89.84,1.25,2.44,1.63,1.89.45,2.92,1.21,3.16,2.75a3,3,0,0,1-2.27,3.35l.27,1.79Z"/><path class="cls-4" d="M10.2,35.25a23,23,0,0,1,39.6-5.53l-1-7.42"/><line class="cls-4" x1="43.09" y1="30.55" x2="49.8" y2="29.72"/><path class="cls-4" d="M53.77,60.76a23,23,0,0,1-39.6,5.54l1,7.41"/><line class="cls-4" x1="20.88" y1="65.46" x2="14.17" y2="66.3"/><rect class="cls-5" x="102.48" y="26.09" width="10.45" height="16.33" transform="translate(210.21 81.86) rotate(-172.73)"/><polyline class="cls-6" points="114.97 24.59 118.14 20.29 99.97 17.97 103.46 25.89"/><circle class="cls-6" cx="105.31" cy="48.46" r="11.63"/><path class="cls-1" d="M103.76,57.31l.26-2a5.7,5.7,0,0,1-2.91-1.25l.64-1.26A5.33,5.33,0,0,0,104.49,54a2.1,2.1,0,0,0,2.6-1.64c.13-1.09-.55-1.86-1.94-2.64-1.91-1-3-2.11-2.82-3.83a3.26,3.26,0,0,1,3.39-2.8l.25-2,1.23.16L107,43.17a5.51,5.51,0,0,1,2.48,1l-.66,1.25a4.78,4.78,0,0,0-2.4-1c-1.52-.2-2.21.64-2.31,1.43-.13,1,.53,1.63,2.16,2.56,1.93,1.09,2.83,2.25,2.6,4a3.46,3.46,0,0,1-3.55,3L105,57.47Z"/><rect class="cls-7" x="98.31" y="33.1" width="7.64" height="3.23" rx="1.37" ry="1.37" transform="translate(199.04 82.08) rotate(-172.73)"/><rect class="cls-7" x="97.82" y="36.93" width="7.64" height="3.23" rx="1.37" ry="1.37" transform="translate(197.59 89.64) rotate(-172.73)"/><path class="cls-7" d="M115.33,42.48l2.28-.8,15.13,2.1,1.59-12.47-16-2.21L113,23.8l-6.65,1-3.11,2.41s-2.46,6.79,4.92,3l3.53,3.16A8.07,8.07,0,0,0,112.94,40l2.39,2.49"/><rect class="cls-7" x="99.29" y="25.45" width="7.64" height="3.23" rx="1.37" ry="1.37" transform="translate(201.96 66.96) rotate(-172.73)"/><rect class="cls-7" x="98.8" y="29.28" width="7.64" height="3.23" rx="1.37" ry="1.37" transform="translate(200.5 74.52) rotate(-172.73)"/></g></svg>