<svg xmlns="http://www.w3.org/2000/svg" viewBox="0 0 130.19 130.13"><defs><style>.cls-1,.cls-5{fill:#fff;}.cls-1{stroke:#00a14b;}.cls-1,.cls-2,.cls-4,.cls-6,.cls-8{stroke-linecap:round;stroke-linejoin:round;}.cls-1,.cls-2,.cls-8{stroke-width:1.55px;}.cls-2{fill:#00a14b;}.cls-2,.cls-4,.cls-8{stroke:#231f20;}.cls-3{fill:#231f20;}.cls-4,.cls-6,.cls-8{fill:none;}.cls-4,.cls-6{stroke-width:1.62px;}.cls-6{stroke:#929497;}.cls-7{fill:#929497;}</style></defs><title>Lean Management Case Study</title><g id="Layer_1" data-name="Layer 1"><polyline class="cls-1" points="59.02 79.73 115.33 79.73 115.33 54.08"/><polyline class="cls-1" points="56.03 76.74 112.34 76.74 112.34 51.09"/><rect class="cls-2" x="52.56" y="48.06" width="56.77" height="25.44" transform="translate(-0.08 0.11) rotate(-0.08)"/><path class="cls-2" d="M63.37,48.08A10.84,10.84,0,0,1,52.56,58.92"/><path class="cls-2" d="M98.48,48a10.84,10.84,0,0,0,10.84,10.81"/><path class="cls-2" d="M63.4,73.18A10.82,10.82,0,0,0,52.56,62.37"/><path class="cls-2" d="M98.52,73.13a10.82,10.82,0,0,1,10.81-10.84"/><path class="cls-3" d="M80.24,69.47V67.33A6.23,6.23,0,0,1,77,66.41L77.5,65a5.75,5.75,0,0,0,3,.9c1.51,0,2.52-.87,2.52-2.08s-.83-1.88-2.4-2.51c-2.16-.85-3.49-1.82-3.49-3.66a3.46,3.46,0,0,1,3.19-3.41V52.09h1.31v2a5.6,5.6,0,0,1,2.75.74l-.52,1.4a5.1,5.1,0,0,0-2.67-.72c-1.63,0-2.25,1-2.24,1.82,0,1.1.78,1.65,2.62,2.41,2.19.89,3.29,2,3.29,3.87a3.69,3.69,0,0,1-3.34,3.61v2.2Z"/><path class="cls-4" d="M57.24,40.16c0,.56,0,1.11-.06,1.66"/><circle class="cls-5" cx="42.77" cy="40.35" r="27.92"/><path class="cls-6" d="M66.13,39.36a25.34,25.34,0,1,1-6.42-18.6"/><polygon class="cls-7" points="55.95 22.57 63.88 18.69 63.31 27.01 55.95 22.57"/><line class="cls-8" x1="37.5" y1="20.77" x2="36.67" y2="17.02"/><line class="cls-8" x1="56.65" y1="33.39" x2="60.95" y2="32.42"/><line class="cls-8" x1="45.27" y1="52.96" x2="46.38" y2="57.67"/><line class="cls-8" x1="24.88" y1="41.02" x2="20.3" y2="42.27"/><polyline class="cls-8" points="30.98 22.85 40.81 37.69 52.21 29.37"/><circle class="cls-7" cx="41.37" cy="37.3" r="3.05"/><path class="cls-3" d="M2,103.39H4a4.36,4.36,0,0,1,2.73.8,2.5,2.5,0,0,1,1,2.07,2.65,2.65,0,0,1-1.1,2.15,5.18,5.18,0,0,1-3.33.84v4.1H2Zm1.34,1.19v3.49a4.83,4.83,0,0,0,2.27-.44,1.43,1.43,0,0,0,.74-1.34,1.59,1.59,0,0,0-.56-1.2A3.93,3.93,0,0,0,3.35,104.58Z"/><path class="cls-3" d="M14,106.9h1.36v6.45H14v-1.28a2.91,2.91,0,0,1-2.46,1.46,2.83,2.83,0,0,1-2.17-1,3.62,3.62,0,0,1,0-4.8,2.81,2.81,0,0,1,2.14-1,2.7,2.7,0,0,1,1.44.42,2.91,2.91,0,0,1,1,1.07Zm.19,3.24a2.07,2.07,0,0,0-.63-1.51,2.14,2.14,0,0,0-3,0,2,2,0,0,0-.64,1.47,2.11,2.11,0,0,0,.63,1.55,2,2,0,0,0,1.52.64,2.15,2.15,0,0,0,2.15-2.15Z"/><path class="cls-3" d="M16.69,106.9h1.54l2.34,3.5,1.61-3.5h1.4l-4.35,9.47H17.81l2.13-4.61Z"/><path class="cls-3" d="M25.31,103.21h1.35v5a2.73,2.73,0,0,1,2.48-1.46,2.88,2.88,0,0,1,2.17,1,3.42,3.42,0,0,1,.92,2.38,3.54,3.54,0,0,1-.91,2.4,2.74,2.74,0,0,1-2.1,1,2.78,2.78,0,0,1-1.47-.42A2.93,2.93,0,0,1,26.66,112v1.36H25.31Zm5.48,6.89a2,2,0,0,0-.63-1.51,2.12,2.12,0,0,0-1.54-.63,2.06,2.06,0,0,0-1.5.63,2.1,2.1,0,0,0-.64,1.51,2.05,2.05,0,0,0,.64,1.52,2.14,2.14,0,0,0,1.57.63,2,2,0,0,0,1.48-.64A2.08,2.08,0,0,0,30.79,110.1Z"/><path class="cls-3" d="M39.36,106.9h1.36v6.45H39.36v-1.28a2.91,2.91,0,0,1-2.46,1.46,2.85,2.85,0,0,1-2.18-1,3.51,3.51,0,0,1-.9-2.43,3.44,3.44,0,0,1,.91-2.37,2.81,2.81,0,0,1,2.14-1,2.67,2.67,0,0,1,1.43.42,2.86,2.86,0,0,1,1.06,1.07Zm.19,3.24a2.14,2.14,0,0,0-3.66-1.51,2,2,0,0,0-.64,1.47,2.14,2.14,0,0,0,.62,1.55,2,2,0,0,0,1.52.64,2.08,2.08,0,0,0,1.52-.63A2.1,2.1,0,0,0,39.55,110.14Z"/><path class="cls-3" d="M47.59,111.38v1.55a4,4,0,0,1-2,.6,3.45,3.45,0,0,1-3.35-3.33,3.38,3.38,0,0,1,1-2.49,3.44,3.44,0,0,1,2.51-1,4.19,4.19,0,0,1,1.85.47v1.52a3.6,3.6,0,0,0-1.93-.66,2.1,2.1,0,0,0-1.48.59,1.87,1.87,0,0,0-.63,1.4,2.08,2.08,0,0,0,.59,1.51,1.94,1.94,0,0,0,1.45.61A3.64,3.64,0,0,0,47.59,111.38Z"/><path class="cls-3" d="M49.16,103.21h1.35v6.52l2.67-2.83h1.76l-2.78,3L55,113.35H53.29l-2.78-3.41v3.41H49.16Z"/><path class="cls-3" d="M61.11,103.39h2a4.36,4.36,0,0,1,2.73.8,2.47,2.47,0,0,1,1,2.07,2.62,2.62,0,0,1-1.1,2.15,5.18,5.18,0,0,1-3.33.84v4.1H61.11Zm1.34,1.19v3.49a4.83,4.83,0,0,0,2.27-.44,1.43,1.43,0,0,0,.74-1.34,1.59,1.59,0,0,0-.56-1.2A3.93,3.93,0,0,0,62.45,104.58Z"/><path class="cls-3" d="M74.13,110.39h-5.5a2.17,2.17,0,0,0,.82,1.45,2.32,2.32,0,0,0,1.38.45,2.4,2.4,0,0,0,1.94-1l1,.75a3.57,3.57,0,0,1-3,1.45,3.21,3.21,0,0,1-2.4-1,3.32,3.32,0,0,1-1-2.44,3.26,3.26,0,0,1,1-2.37,3.32,3.32,0,0,1,4.78,0A3.59,3.59,0,0,1,74.13,110.39Zm-5.36-1.09h3.94A2.08,2.08,0,0,0,70.77,108,2.05,2.05,0,0,0,68.77,109.3Z"/><path class="cls-3" d="M77.21,106.9v1.33a4.13,4.13,0,0,1,.89-1.15,1.7,1.7,0,0,1,1.13-.36,2.2,2.2,0,0,1,.56.1l-.42,1.36a2.63,2.63,0,0,0-.51-.08,1.53,1.53,0,0,0-1.15.48,1.66,1.66,0,0,0-.47,1.2v3.57H75.88V106.9Z"/><path class="cls-3" d="M80.77,104.79a1,1,0,0,1,.31-.74,1.05,1.05,0,0,1,.75-.3,1,1,0,0,1,.73.3,1,1,0,0,1,.31.74,1,1,0,0,1-1,1,1.05,1.05,0,0,1-.75-.3A1,1,0,0,1,80.77,104.79Zm.39,2.11H82.5v6.45H81.16Z"/><path class="cls-3" d="M84.17,110.1a3.22,3.22,0,0,1,1-2.35,3.37,3.37,0,0,1,4.83,0,3.23,3.23,0,0,1,1,2.37,3.31,3.31,0,0,1-1,2.39,3.23,3.23,0,0,1-2.36,1,3.42,3.42,0,0,1-2.48-1A3.24,3.24,0,0,1,84.17,110.1Zm5.59,0a1.92,1.92,0,0,0-.62-1.43,2.07,2.07,0,0,0-1.48-.6,2.1,2.1,0,0,0-1.52.61,2,2,0,0,0-.64,1.47,1.88,1.88,0,0,0,.64,1.42,2.13,2.13,0,0,0,1.52.61,2,2,0,0,0,1.47-.62A2,2,0,0,0,89.76,110.1Z"/><path class="cls-3" d="M97.94,103.21h1.34v10.14H98V112a2.88,2.88,0,0,1-2.52,1.53,2.81,2.81,0,0,1-2.16-1,3.51,3.51,0,0,1-.9-2.42,3.4,3.4,0,0,1,.92-2.38,2.85,2.85,0,0,1,2.18-1,2.59,2.59,0,0,1,1.42.42,3.19,3.19,0,0,1,1,1.11Zm.15,6.9a2.06,2.06,0,0,0-.63-1.5A2,2,0,0,0,96,108a2.12,2.12,0,0,0-1.54.62,2.16,2.16,0,0,0,1.51,3.67,2.14,2.14,0,0,0,1.54-.62A2.08,2.08,0,0,0,98.09,110.11Z"/><path class="cls-3" d="M107.31,103.08l1.1.5a13.37,13.37,0,0,0-1.18,3,12.4,12.4,0,0,0-.32,2.93,14.78,14.78,0,0,0,.31,3.26,14.6,14.6,0,0,0,1.11,3.09l-1,.58a14.11,14.11,0,0,1-1.59-6.58,16.24,16.24,0,0,1,.33-3.39A14.21,14.21,0,0,1,107.31,103.08Z"/><path class="cls-3" d="M110.56,103.39h2a4.41,4.41,0,0,1,2.74.8,2.49,2.49,0,0,1,1,2.07,2.63,2.63,0,0,1-1.09,2.15,5.2,5.2,0,0,1-3.33.84v4.1h-1.35Zm1.35,1.19v3.49a4.78,4.78,0,0,0,2.26-.44,1.41,1.41,0,0,0,.74-1.34,1.55,1.55,0,0,0-.56-1.2A3.9,3.9,0,0,0,111.91,104.58Z"/><path class="cls-3" d="M118.56,103.39h2a4.41,4.41,0,0,1,2.74.8,2.49,2.49,0,0,1,1,2.07,2.63,2.63,0,0,1-1.09,2.15,5.2,5.2,0,0,1-3.33.84v4.1h-1.35Zm1.35,1.19v3.49a4.78,4.78,0,0,0,2.26-.44,1.41,1.41,0,0,0,.74-1.34,1.55,1.55,0,0,0-.56-1.2A3.9,3.9,0,0,0,119.91,104.58Z"/><path class="cls-3" d="M125.89,103.58l1.07-.5a13,13,0,0,1,1.66,6.72,14.81,14.81,0,0,1-1.57,6.63l-1.08-.57a18.19,18.19,0,0,0,1.21-3.42,15.26,15.26,0,0,0,.23-2.77,13.46,13.46,0,0,0-.32-3.13A11.36,11.36,0,0,0,125.89,103.58Z"/></g></svg>